<svg xmlns="http://www.w3.org/2000/svg" xmlns:xlink="http://www.w3.org/1999/xlink" viewBox="0 0 505 499"><defs><style>.cls-1{fill:none;}.cls-2{fill:#d51317;}.cls-3{fill:#f5b006;}.cls-4{fill:#1d1d1b;}.cls-5{fill:#383189;}.cls-6{fill:url(#Cor_Cidade_do_México);}</style><pattern id="Cor_Cidade_do_México" data-name="Cor Cidade do México" x="3" y="-1" width="62.5" height="59.57" patternUnits="userSpaceOnUse" viewBox="0 0 62.5 59.57"><rect class="cls-1" width="62.5" height="59.57"/><rect class="cls-2" width="62.5" height="59.57"/><path class="cls-3" d="M14.52,16.67l-2.68,1.42-9,4.19-.58-.1L1.8,21.11l.59-.93,13.55-6.43,3.51-1.85,7.7-3.42c.93-.53,2-1.46,3.07-.92l-.14,1.75Z"/><path class="cls-4" d="M30,18.58a11.9,11.9,0,0,1-2.83-1.42l-.1.25a48.33,48.33,0,0,1,2.25,5.36c-2.1-.88-3.71-3.27-6.1-3.61l-.34.44,5.95,8.53c.19.68,1.07,1.37.58,2l-.68-.1L20,23a22.06,22.06,0,0,1-2.24-1.41v.83L22,30l-.15.59H21.2l-7.85-7-.34.24c.34,2.29,1.56,4.63,1.76,7l-.59.1-5.6-4.78-.73.1c0,1.36.53,2.92.58,4.19-1.51,0-2.53-2-3.95-2.68l-.24.73L4,40.81V53.53c0,.39-.48.88,0,1.17l22.72.15.44-.59L27.54,45l.1-8.19a1.1,1.1,0,0,0-.49-1.07l-15.79-.35h-.44l-.25,1.08-.09,11.36c-.25.29-.1.78-.15,1.17l.34.19c3.66.05,6.68-.1,10.09.15L21.2,49l-.1-6.93c-1.21-.44-2.87-.14-4.09-.24-.88,1.36.78,3.56-1,4.34l-1.27-.1c-1.27-1.71-.49-4.24-.68-6.34.24-.78,1.17-.48,1.75-.68l7.61.1.58.92-.24,10.44c-.15.53-.64.68-.93,1.17l-14-.25c-.44-.24-1-.39-1.07-.92V44.75l.58-11L9,33.05l19.54.15a1.6,1.6,0,0,1,1.32,1L29.64,55a3.2,3.2,0,0,1-.83,2.24H2.48a1.76,1.76,0,0,1-1.07-1.51l.15-18.28L2,27,2.58,26l16.28-8c3.07-2.34,6.88-2.83,10-5.17.24-.19.63-.09.92-.09l.49.58Z"/><path class="cls-5" d="M28.22,4.54,24,6.39,10.58,12.73l-7.41,3.6a2.83,2.83,0,0,1-.93.1,11.13,11.13,0,0,1-.44-4.29c1-.34,1.61,1.36,2.54,1.17A50.13,50.13,0,0,1,1.56,7.07l.34-.19c1.8.92,3.36,2.77,5.17,3.36l-.49-1L1.9,1.37c0-.3,0-.59.24-.74C3.8,1.51,5.21,3,6.82,4l5.95,4.68c.34,0,.49-.34.73-.49L10,1.12c-.1-.19.1-.34.2-.49L11.26,1l5.36,4.69c.44,0,.73,1,1.17.34-.29-1.66-.78-3.22-.93-4.93.54-.92,1,.34,1.52.34L22,4.73C23.74,3.85,23.2,0,25.88,1.22c1.32,1,3.95.34,4.1,2.34Z"/><path class="cls-3" d="M45.73,42.85l-2.68-1.41-9-4.19-.58.09L33,38.42l.58.92,13.55,6.44,3.51,1.85L58.36,51c.92.54,2,1.46,3.07.93l-.15-1.76Z"/><path class="cls-4" d="M61.18,41a11.84,11.84,0,0,0-2.82,1.42l-.1-.25a46.45,46.45,0,0,0,2.24-5.36c-2.1.88-3.7,3.27-6.09,3.61l-.34-.44L60,31.4c.2-.69,1.08-1.37.59-2l-.68.1-8.68,7A21,21,0,0,0,49,37.93V37.1l4.24-7.6-.15-.59h-.68l-7.85,7-.34-.24c.34-2.29,1.56-4.63,1.75-7l-.58-.1-5.61,4.78-.73-.1c0-1.37.54-2.93.59-4.19-1.51.05-2.54,2-4,2.68L35.44,31,35.2,18.72V6c0-.39-.49-.88,0-1.17l22.72-.15.44.59.39,9.26.09,8.19a1.08,1.08,0,0,1-.48,1.07l-15.8.34h-.44l-.24-1.07-.1-11.36c-.24-.29-.1-.78-.15-1.17l.35-.19c3.65-.05,6.67.09,10.09-.15l.34.34-.1,6.92c-1.22.44-2.88.15-4.09.25-.88-1.37.78-3.56-1-4.34l-1.27.1c-1.26,1.7-.48,4.24-.68,6.33.25.78,1.17.49,1.76.69l7.6-.1.59-.93L55,9c-.14-.54-.63-.68-.92-1.17L40,8.09c-.44.25-1,.39-1.07.93v5.75l.58,11,.68.73,19.55-.14a1.62,1.62,0,0,0,1.32-1L60.84,4.49A3.14,3.14,0,0,0,60,2.24H33.69a1.76,1.76,0,0,0-1.07,1.51L32.76,22l.44,10.53.59.92,16.28,8c3.07,2.34,6.87,2.82,9.94,5.16.25.2.64.1.93.1l.49-.58Z"/><path class="cls-5" d="M59.43,55l-4.19-1.85L41.78,46.8l-7.41-3.61a3,3,0,0,0-.92-.09A11.11,11.11,0,0,0,33,47.39c1,.34,1.6-1.37,2.53-1.17a50.29,50.29,0,0,0-2.78,6.24l.34.19c1.81-.92,3.37-2.78,5.17-3.36l-.49,1L33.1,58.16c0,.29-.05.58.25.73C35,58,36.42,56.55,38,55.58L44,50.9c.34,0,.48.34.73.48l-3.51,7c-.1.2.09.34.19.49l1.07-.39,5.37-4.68c.43,0,.73-1,1.17-.34-.29,1.66-.78,3.22-.93,4.92.54.93,1-.34,1.51-.34l3.66-3.26c1.7.87,1.17,4.72,3.85,3.5C58.4,57.33,61,58,61.18,56Z"/></pattern></defs><g id="Camada_1" data-name="Camada 1"><rect class="cls-6" width="505" height="499"/></g></svg>