<svg xmlns="http://www.w3.org/2000/svg" xmlns:xlink="http://www.w3.org/1999/xlink" viewBox="0 0 500 500"><defs><style>.cls-1,.cls-2,.cls-3,.cls-4{fill:none;}.cls-2{stroke:#fbdd7c;}.cls-2,.cls-3{stroke-linecap:round;stroke-width:2px;stroke-dasharray:0 4.5;}.cls-3{stroke:#ed7daf;}.cls-4{stroke:#008e88;}.cls-5{fill:#008e88;}.cls-6{fill:url(#Cor_de_galho_de_salgueiro);}</style><pattern id="Cor_de_galho_de_salgueiro" data-name="Cor de galho de salgueiro" width="116" height="175.5" patternUnits="userSpaceOnUse" viewBox="0 0 116 175.5"><rect class="cls-1" width="116" height="175.5"/><line class="cls-2" x1="31" y1="172.25" x2="31" y2="355.25"/><line class="cls-3" x1="2" y1="172.25" x2="2" y2="355.25"/><line class="cls-3" x1="60" y1="172.25" x2="60" y2="355.25"/><line class="cls-2" x1="89" y1="172.25" x2="89" y2="355.25"/><line class="cls-4" x1="74.5" y1="174.61" x2="74.5" y2="209.88"/><line class="cls-4" x1="45.5" y1="174.61" x2="45.5" y2="257.88"/><line class="cls-4" x1="16.5" y1="174.61" x2="16.5" y2="201.88"/><line class="cls-2" x1="31" y1="-3.25" x2="31" y2="179.75"/><line class="cls-3" x1="2" y1="-3.25" x2="2" y2="179.75"/><line class="cls-3" x1="60" y1="-3.25" x2="60" y2="179.75"/><line class="cls-2" x1="89" y1="-3.25" x2="89" y2="179.75"/><path class="cls-5" d="M74.5,30.72a8.75,8.75,0,0,0,1.18,4.35c1.44,2.34-.05,2.9-.64,2,.42,1.16.52,2.74-.54,3-1.06-.23-1-1.81-.54-3-.59.92-2.09.36-.64-2A8.75,8.75,0,0,0,74.5,30.72Z"/><path class="cls-5" d="M74.5,126.72a8.75,8.75,0,0,0,1.18,4.35c1.44,2.34-.05,2.9-.64,2,.42,1.16.52,2.74-.54,3-1.06-.23-1-1.81-.54-3-.59.92-2.09.36-.64-2A8.75,8.75,0,0,0,74.5,126.72Z"/><path class="cls-5" d="M45.5,78.72a8.75,8.75,0,0,0,1.18,4.35c1.44,2.34,0,2.9-.64,2,.42,1.16.52,2.74-.54,3-1.06-.23-1-1.81-.54-3-.59.92-2.08.36-.64-2A8.75,8.75,0,0,0,45.5,78.72Z"/><path class="cls-5" d="M16.5,22.72a8.75,8.75,0,0,0,1.18,4.35c1.44,2.34-.05,2.9-.64,2,.42,1.16.52,2.74-.54,3-1.06-.23-1-1.81-.54-3-.59.92-2.08.36-.64-2A8.75,8.75,0,0,0,16.5,22.72Z"/><path class="cls-5" d="M16.5,126.72a8.75,8.75,0,0,0,1.18,4.35c1.44,2.34-.05,2.9-.64,2,.42,1.16.52,2.74-.54,3-1.06-.23-1-1.81-.54-3-.59.92-2.08.36-.64-2A8.75,8.75,0,0,0,16.5,126.72Z"/><path class="cls-5" d="M103.5,166.22a8.75,8.75,0,0,0,1.18,4.35c1.44,2.34-.05,2.9-.64,2,.42,1.16.52,2.74-.54,3-1.06-.23-1-1.81-.54-3-.59.92-2.09.36-.64-2A8.75,8.75,0,0,0,103.5,166.22Z"/><line class="cls-4" x1="74.5" y1="-0.89" x2="74.5" y2="34.38"/><line class="cls-4" x1="74.5" y1="48.13" x2="74.5" y2="130.38"/><line class="cls-4" x1="45.5" y1="-0.89" x2="45.5" y2="82.38"/><line class="cls-4" x1="45.5" y1="176.61" x2="45.5" y2="111.63"/><line class="cls-4" x1="16.5" y1="55.88" x2="16.5" y2="130.38"/><line class="cls-4" x1="16.5" y1="-0.89" x2="16.5" y2="26.38"/><line class="cls-4" x1="103.5" y1="169.88" x2="103.5" y2="23.63"/><line class="cls-4" x1="74.5" y1="167.38" x2="74.5" y2="177"/><line class="cls-4" x1="16.5" y1="151.63" x2="16.5" y2="177"/><path class="cls-5" d="M69.2,23.35a8.38,8.38,0,0,1,3.46-7.24A8.38,8.38,0,0,1,69.2,23.35Z"/><path class="cls-5" d="M79.8,23.35a8.36,8.36,0,0,0-3.47-7.24A8.39,8.39,0,0,0,79.8,23.35Z"/><path class="cls-5" d="M69.2,15.35a8.38,8.38,0,0,1,3.46-7.24A8.38,8.38,0,0,1,69.2,15.35Z"/><path class="cls-5" d="M79.8,15.35a8.36,8.36,0,0,0-3.47-7.24A8.39,8.39,0,0,0,79.8,15.35Z"/><path class="cls-5" d="M69.2,7.35A8.38,8.38,0,0,1,72.66.11,8.38,8.38,0,0,1,69.2,7.35Z"/><path class="cls-5" d="M79.8,7.35A8.36,8.36,0,0,0,76.33.11,8.39,8.39,0,0,0,79.8,7.35Z"/><path class="cls-5" d="M69.2,119.35a8.38,8.38,0,0,1,3.46-7.24A8.38,8.38,0,0,1,69.2,119.35Z"/><path class="cls-5" d="M79.8,119.35a8.36,8.36,0,0,0-3.47-7.24A8.39,8.39,0,0,0,79.8,119.35Z"/><path class="cls-5" d="M69.2,111.35a8.38,8.38,0,0,1,3.46-7.24A8.38,8.38,0,0,1,69.2,111.35Z"/><path class="cls-5" d="M79.8,111.35a8.36,8.36,0,0,0-3.47-7.24A8.39,8.39,0,0,0,79.8,111.35Z"/><path class="cls-5" d="M69.2,103.35a8.38,8.38,0,0,1,3.46-7.24A8.38,8.38,0,0,1,69.2,103.35Z"/><path class="cls-5" d="M79.8,103.35a8.36,8.36,0,0,0-3.47-7.24A8.39,8.39,0,0,0,79.8,103.35Z"/><path class="cls-5" d="M69.2,95.35a8.38,8.38,0,0,1,3.46-7.24A8.38,8.38,0,0,1,69.2,95.35Z"/><path class="cls-5" d="M79.8,95.35a8.36,8.36,0,0,0-3.47-7.24A8.39,8.39,0,0,0,79.8,95.35Z"/><path class="cls-5" d="M69.2,87.35a8.38,8.38,0,0,1,3.46-7.24A8.38,8.38,0,0,1,69.2,87.35Z"/><path class="cls-5" d="M79.8,87.35a8.36,8.36,0,0,0-3.47-7.24A8.39,8.39,0,0,0,79.8,87.35Z"/><path class="cls-5" d="M40.2,79.35a8.36,8.36,0,0,1,3.47-7.24A8.41,8.41,0,0,1,40.2,79.35Z"/><path class="cls-5" d="M50.8,79.35a8.36,8.36,0,0,0-3.47-7.24A8.39,8.39,0,0,0,50.8,79.35Z"/><path class="cls-5" d="M40.2,71.35a8.36,8.36,0,0,1,3.47-7.24A8.41,8.41,0,0,1,40.2,71.35Z"/><path class="cls-5" d="M50.8,71.35a8.36,8.36,0,0,0-3.47-7.24A8.39,8.39,0,0,0,50.8,71.35Z"/><path class="cls-5" d="M40.2,63.35a8.36,8.36,0,0,1,3.47-7.24A8.41,8.41,0,0,1,40.2,63.35Z"/><path class="cls-5" d="M50.8,63.35a8.36,8.36,0,0,0-3.47-7.24A8.39,8.39,0,0,0,50.8,63.35Z"/><path class="cls-5" d="M40.2,55.35a8.36,8.36,0,0,1,3.47-7.24A8.41,8.41,0,0,1,40.2,55.35Z"/><path class="cls-5" d="M50.8,55.35a8.36,8.36,0,0,0-3.47-7.24A8.39,8.39,0,0,0,50.8,55.35Z"/><path class="cls-5" d="M40.2,47.35a8.36,8.36,0,0,1,3.47-7.24A8.41,8.41,0,0,1,40.2,47.35Z"/><path class="cls-5" d="M50.8,47.35a8.36,8.36,0,0,0-3.47-7.24A8.39,8.39,0,0,0,50.8,47.35Z"/><path class="cls-5" d="M40.2,39.35a8.36,8.36,0,0,1,3.47-7.24A8.41,8.41,0,0,1,40.2,39.35Z"/><path class="cls-5" d="M50.8,39.35a8.36,8.36,0,0,0-3.47-7.24A8.39,8.39,0,0,0,50.8,39.35Z"/><path class="cls-5" d="M40.2,31.35a8.36,8.36,0,0,1,3.47-7.24A8.41,8.41,0,0,1,40.2,31.35Z"/><path class="cls-5" d="M50.8,31.35a8.36,8.36,0,0,0-3.47-7.24A8.39,8.39,0,0,0,50.8,31.35Z"/><path class="cls-5" d="M40.2,23.35a8.36,8.36,0,0,1,3.47-7.24A8.41,8.41,0,0,1,40.2,23.35Z"/><path class="cls-5" d="M50.8,23.35a8.36,8.36,0,0,0-3.47-7.24A8.39,8.39,0,0,0,50.8,23.35Z"/><path class="cls-5" d="M40.2,166.85a8.36,8.36,0,0,1,3.47-7.24A8.41,8.41,0,0,1,40.2,166.85Z"/><path class="cls-5" d="M50.8,166.85a8.36,8.36,0,0,0-3.47-7.24A8.39,8.39,0,0,0,50.8,166.85Z"/><path class="cls-5" d="M40.2,158.85a8.36,8.36,0,0,1,3.47-7.24A8.41,8.41,0,0,1,40.2,158.85Z"/><path class="cls-5" d="M50.8,158.85a8.36,8.36,0,0,0-3.47-7.24A8.39,8.39,0,0,0,50.8,158.85Z"/><path class="cls-5" d="M40.2,150.85a8.36,8.36,0,0,1,3.47-7.24A8.41,8.41,0,0,1,40.2,150.85Z"/><path class="cls-5" d="M50.8,150.85a8.36,8.36,0,0,0-3.47-7.24A8.39,8.39,0,0,0,50.8,150.85Z"/><path class="cls-5" d="M40.2,142.85a8.36,8.36,0,0,1,3.47-7.24A8.41,8.41,0,0,1,40.2,142.85Z"/><path class="cls-5" d="M50.8,142.85a8.36,8.36,0,0,0-3.47-7.24A8.39,8.39,0,0,0,50.8,142.85Z"/><path class="cls-5" d="M40.2,134.85a8.36,8.36,0,0,1,3.47-7.24A8.41,8.41,0,0,1,40.2,134.85Z"/><path class="cls-5" d="M50,133.5c.18-2.79-.38-4.28-2.67-5.89C47.16,130.4,47.71,131.88,50,133.5Z"/><path class="cls-5" d="M40.2,126.85a8.36,8.36,0,0,1,3.47-7.24A8.41,8.41,0,0,1,40.2,126.85Z"/><path class="cls-5" d="M50.8,126.85a8.36,8.36,0,0,0-3.47-7.24A8.39,8.39,0,0,0,50.8,126.85Z"/><path class="cls-5" d="M69.2,31.35a8.38,8.38,0,0,1,3.46-7.24A8.38,8.38,0,0,1,69.2,31.35Z"/><path class="cls-5" d="M79.8,31.35a8.36,8.36,0,0,0-3.47-7.24A8.39,8.39,0,0,0,79.8,31.35Z"/><path class="cls-5" d="M40.2,15.35a8.36,8.36,0,0,1,3.47-7.24A8.41,8.41,0,0,1,40.2,15.35Z"/><path class="cls-5" d="M50.8,15.35a8.36,8.36,0,0,0-3.47-7.24A8.39,8.39,0,0,0,50.8,15.35Z"/><path class="cls-5" d="M40.2,7.35A8.36,8.36,0,0,1,43.67.11,8.41,8.41,0,0,1,40.2,7.35Z"/><path class="cls-5" d="M50.8,7.35A8.36,8.36,0,0,0,47.33.11,8.39,8.39,0,0,0,50.8,7.35Z"/><path class="cls-5" d="M11.2,95.35a8.36,8.36,0,0,1,3.47-7.24A8.41,8.41,0,0,1,11.2,95.35Z"/><path class="cls-5" d="M21.8,95.35a8.36,8.36,0,0,0-3.47-7.24A8.39,8.39,0,0,0,21.8,95.35Z"/><path class="cls-5" d="M11.2,23.35a8.36,8.36,0,0,1,3.47-7.24A8.41,8.41,0,0,1,11.2,23.35Z"/><path class="cls-5" d="M21.8,23.35a8.36,8.36,0,0,0-3.47-7.24A8.39,8.39,0,0,0,21.8,23.35Z"/><path class="cls-5" d="M11.2,15.35a8.36,8.36,0,0,1,3.47-7.24A8.41,8.41,0,0,1,11.2,15.35Z"/><path class="cls-5" d="M21.8,15.35a8.36,8.36,0,0,0-3.47-7.24A8.39,8.39,0,0,0,21.8,15.35Z"/><path class="cls-5" d="M11.2,7.35A8.36,8.36,0,0,1,14.67.11,8.41,8.41,0,0,1,11.2,7.35Z"/><path class="cls-5" d="M21.8,7.35A8.36,8.36,0,0,0,18.33.11,8.39,8.39,0,0,0,21.8,7.35Z"/><path class="cls-5" d="M11.2,103.35a8.36,8.36,0,0,1,3.47-7.24A8.41,8.41,0,0,1,11.2,103.35Z"/><path class="cls-5" d="M21.8,103.35a8.36,8.36,0,0,0-3.47-7.24A8.39,8.39,0,0,0,21.8,103.35Z"/><path class="cls-5" d="M11.2,111.35a8.36,8.36,0,0,1,3.47-7.24A8.41,8.41,0,0,1,11.2,111.35Z"/><path class="cls-5" d="M21.8,111.35a8.36,8.36,0,0,0-3.47-7.24A8.39,8.39,0,0,0,21.8,111.35Z"/><path class="cls-5" d="M40.2,174.85a8.36,8.36,0,0,1,3.47-7.24A8.41,8.41,0,0,1,40.2,174.85Z"/><path class="cls-5" d="M50.8,174.85a8.36,8.36,0,0,0-3.47-7.24A8.39,8.39,0,0,0,50.8,174.85Z"/><path class="cls-5" d="M69.2,79.35a8.38,8.38,0,0,1,3.46-7.24A8.38,8.38,0,0,1,69.2,79.35Z"/><path class="cls-5" d="M79.8,79.35a8.36,8.36,0,0,0-3.47-7.24A8.39,8.39,0,0,0,79.8,79.35Z"/><path class="cls-5" d="M98.2,70.85a8.38,8.38,0,0,1,3.46-7.24A8.38,8.38,0,0,1,98.2,70.85Z"/><path class="cls-5" d="M108.8,70.85a8.36,8.36,0,0,0-3.47-7.24A8.39,8.39,0,0,0,108.8,70.85Z"/><path class="cls-5" d="M98.2,62.85a8.38,8.38,0,0,1,3.46-7.24A8.38,8.38,0,0,1,98.2,62.85Z"/><path class="cls-5" d="M108.8,62.85a8.36,8.36,0,0,0-3.47-7.24A8.39,8.39,0,0,0,108.8,62.85Z"/><path class="cls-5" d="M98.2,54.85a8.38,8.38,0,0,1,3.46-7.24A8.38,8.38,0,0,1,98.2,54.85Z"/><path class="cls-5" d="M108.8,54.85a8.36,8.36,0,0,0-3.47-7.24A8.39,8.39,0,0,0,108.8,54.85Z"/><path class="cls-5" d="M98.2,46.85a8.38,8.38,0,0,1,3.46-7.24A8.38,8.38,0,0,1,98.2,46.85Z"/><path class="cls-5" d="M108.8,46.85a8.36,8.36,0,0,0-3.47-7.24A8.39,8.39,0,0,0,108.8,46.85Z"/><path class="cls-5" d="M98.2,38.85a8.38,8.38,0,0,1,3.46-7.24A8.38,8.38,0,0,1,98.2,38.85Z"/><path class="cls-5" d="M108.8,38.85a8.36,8.36,0,0,0-3.47-7.24A8.39,8.39,0,0,0,108.8,38.85Z"/><path class="cls-5" d="M98.2,110.85a8.38,8.38,0,0,1,3.46-7.24A8.38,8.38,0,0,1,98.2,110.85Z"/><path class="cls-5" d="M108.8,110.85a8.36,8.36,0,0,0-3.47-7.24A8.39,8.39,0,0,0,108.8,110.85Z"/><path class="cls-5" d="M98.2,78.85a8.38,8.38,0,0,1,3.46-7.24A8.38,8.38,0,0,1,98.2,78.85Z"/><path class="cls-5" d="M108.8,78.85a8.36,8.36,0,0,0-3.47-7.24A8.39,8.39,0,0,0,108.8,78.85Z"/><path class="cls-5" d="M98.2,86.85a8.38,8.38,0,0,1,3.46-7.24A8.38,8.38,0,0,1,98.2,86.85Z"/><path class="cls-5" d="M108.8,86.85a8.36,8.36,0,0,0-3.47-7.24A8.39,8.39,0,0,0,108.8,86.85Z"/><path class="cls-5" d="M98.2,94.85a8.38,8.38,0,0,1,3.46-7.24A8.38,8.38,0,0,1,98.2,94.85Z"/><path class="cls-5" d="M108.8,94.85a8.36,8.36,0,0,0-3.47-7.24A8.39,8.39,0,0,0,108.8,94.85Z"/><path class="cls-5" d="M98.2,102.85a8.38,8.38,0,0,1,3.46-7.24A8.38,8.38,0,0,1,98.2,102.85Z"/><path class="cls-5" d="M108.8,102.85a8.36,8.36,0,0,0-3.47-7.24A8.39,8.39,0,0,0,108.8,102.85Z"/><path class="cls-5" d="M98.2,166.85a8.38,8.38,0,0,1,3.46-7.24A8.38,8.38,0,0,1,98.2,166.85Z"/><path class="cls-5" d="M108.8,166.85a8.36,8.36,0,0,0-3.47-7.24A8.39,8.39,0,0,0,108.8,166.85Z"/><path class="cls-5" d="M98.2,158.85a8.38,8.38,0,0,1,3.46-7.24A8.38,8.38,0,0,1,98.2,158.85Z"/><path class="cls-5" d="M108.8,158.85a8.36,8.36,0,0,0-3.47-7.24A8.39,8.39,0,0,0,108.8,158.85Z"/><path class="cls-5" d="M98.2,150.85a8.38,8.38,0,0,1,3.46-7.24A8.38,8.38,0,0,1,98.2,150.85Z"/><path class="cls-5" d="M108.8,150.85a8.36,8.36,0,0,0-3.47-7.24A8.39,8.39,0,0,0,108.8,150.85Z"/><path class="cls-5" d="M98.2,142.85a8.38,8.38,0,0,1,3.46-7.24A8.38,8.38,0,0,1,98.2,142.85Z"/><path class="cls-5" d="M108.8,142.85a8.36,8.36,0,0,0-3.47-7.24A8.39,8.39,0,0,0,108.8,142.85Z"/><path class="cls-5" d="M98.2,134.85a8.38,8.38,0,0,1,3.46-7.24A8.38,8.38,0,0,1,98.2,134.85Z"/><path class="cls-5" d="M108.8,134.85a8.36,8.36,0,0,0-3.47-7.24A8.39,8.39,0,0,0,108.8,134.85Z"/><path class="cls-5" d="M98.2,126.85a8.38,8.38,0,0,1,3.46-7.24A8.38,8.38,0,0,1,98.2,126.85Z"/><path class="cls-5" d="M108.8,126.85a8.36,8.36,0,0,0-3.47-7.24A8.39,8.39,0,0,0,108.8,126.85Z"/><path class="cls-5" d="M98.2,118.85a8.38,8.38,0,0,1,3.46-7.24A8.38,8.38,0,0,1,98.2,118.85Z"/><path class="cls-5" d="M108.8,118.85a8.36,8.36,0,0,0-3.47-7.24A8.39,8.39,0,0,0,108.8,118.85Z"/><path class="cls-5" d="M69.2,127.35a8.38,8.38,0,0,1,3.46-7.24A8.38,8.38,0,0,1,69.2,127.35Z"/><path class="cls-5" d="M79.8,127.35a8.36,8.36,0,0,0-3.47-7.24A8.39,8.39,0,0,0,79.8,127.35Z"/><path class="cls-5" d="M69.2,71.35a8.38,8.38,0,0,1,3.46-7.24A8.38,8.38,0,0,1,69.2,71.35Z"/><path class="cls-5" d="M79.8,71.35a8.36,8.36,0,0,0-3.47-7.24A8.39,8.39,0,0,0,79.8,71.35Z"/><path class="cls-5" d="M69.2,63.35a8.38,8.38,0,0,1,3.46-7.24A8.38,8.38,0,0,1,69.2,63.35Z"/><path class="cls-5" d="M79.8,63.35a8.36,8.36,0,0,0-3.47-7.24A8.39,8.39,0,0,0,79.8,63.35Z"/><path class="cls-5" d="M11.2,79.35a8.36,8.36,0,0,1,3.47-7.24A8.41,8.41,0,0,1,11.2,79.35Z"/><path class="cls-5" d="M21.8,79.35a8.36,8.36,0,0,0-3.47-7.24A8.39,8.39,0,0,0,21.8,79.35Z"/><path class="cls-5" d="M11.2,87.35a8.36,8.36,0,0,1,3.47-7.24A8.41,8.41,0,0,1,11.2,87.35Z"/><path class="cls-5" d="M21.8,87.35a8.36,8.36,0,0,0-3.47-7.24A8.39,8.39,0,0,0,21.8,87.35Z"/><path class="cls-5" d="M11.2,119.35a8.36,8.36,0,0,1,3.47-7.24A8.41,8.41,0,0,1,11.2,119.35Z"/><path class="cls-5" d="M21.8,119.35a8.36,8.36,0,0,0-3.47-7.24A8.39,8.39,0,0,0,21.8,119.35Z"/><path class="cls-5" d="M11.2,127.35a8.36,8.36,0,0,1,3.47-7.24A8.41,8.41,0,0,1,11.2,127.35Z"/><path class="cls-5" d="M21.8,127.35a8.36,8.36,0,0,0-3.47-7.24A8.39,8.39,0,0,0,21.8,127.35Z"/><path class="cls-5" d="M11.2,71.35a8.36,8.36,0,0,1,3.47-7.24A8.41,8.41,0,0,1,11.2,71.35Z"/><path class="cls-5" d="M21.8,71.35a8.36,8.36,0,0,0-3.47-7.24A8.39,8.39,0,0,0,21.8,71.35Z"/><path class="cls-5" d="M11.2,174.85a8.36,8.36,0,0,1,3.47-7.24A8.41,8.41,0,0,1,11.2,174.85Z"/><path class="cls-5" d="M21.8,174.85a8.36,8.36,0,0,0-3.47-7.24A8.39,8.39,0,0,0,21.8,174.85Z"/><path class="cls-5" d="M11.2,166.85a8.36,8.36,0,0,1,3.47-7.24A8.41,8.41,0,0,1,11.2,166.85Z"/><path class="cls-5" d="M21.8,166.85a8.36,8.36,0,0,0-3.47-7.24A8.39,8.39,0,0,0,21.8,166.85Z"/><line class="cls-2" x1="31" y1="-178.75" x2="31" y2="4.25"/><line class="cls-3" x1="2" y1="-178.75" x2="2" y2="4.25"/><line class="cls-3" x1="60" y1="-178.75" x2="60" y2="4.25"/><line class="cls-2" x1="89" y1="-178.75" x2="89" y2="4.25"/><path class="cls-5" d="M103.5-9.28a8.75,8.75,0,0,0,1.18,4.35c1.44,2.34-.05,2.9-.64,2,.42,1.16.52,2.74-.54,3-1.06-.23-1-1.81-.54-3-.59.92-2.09.36-.64-2A8.75,8.75,0,0,0,103.5-9.28Z"/><line class="cls-4" x1="45.5" y1="1.11" x2="45.5" y2="-63.88"/><line class="cls-4" x1="74.5" y1="-8.13" x2="74.5" y2="1.5"/><line class="cls-4" x1="16.5" y1="-23.88" x2="16.5" y2="1.5"/></pattern></defs><g id="Camada_1" data-name="Camada 1"><rect class="cls-6" x="-9" width="526" height="517"/></g></svg>