<svg xmlns="http://www.w3.org/2000/svg" xmlns:xlink="http://www.w3.org/1999/xlink" viewBox="0 0 475.17 498.13"><defs><style>.cls-1{fill:none;}.cls-2,.cls-7{fill:#d1dd77;}.cls-2,.cls-3,.cls-4{mix-blend-mode:multiply;}.cls-3,.cls-5{fill:#ede4c1;}.cls-4,.cls-6{fill:#b8d7e9;}.cls-8{fill:#fdc300;}.cls-9{fill:#e29100;}.cls-10{fill:url(#linear-gradient);}.cls-11{fill:url(#linear-gradient-2);}.cls-12{fill:url(#linear-gradient-3);}.cls-13{fill:url(#linear-gradient-4);}.cls-14{fill:url(#linear-gradient-5);}.cls-15{fill:url(#linear-gradient-6);}.cls-16{fill:url(#linear-gradient-7);}.cls-17{fill:url(#linear-gradient-8);}.cls-18{fill:#6859a3;}.cls-19{fill:url(#linear-gradient-9);}.cls-20{fill:url(#linear-gradient-10);}.cls-21{fill:url(#linear-gradient-11);}.cls-22{fill:url(#linear-gradient-12);}.cls-23{fill:url(#linear-gradient-13);}.cls-24{fill:url(#linear-gradient-14);}.cls-25{fill:url(#Alyssa_2);}.cls-26{fill:url(#Plume1);}.cls-27{fill:url(#Paletó);}.cls-28{fill:url(#Coroação);}</style><linearGradient id="linear-gradient" x1="-39402.47" y1="-51130.01" x2="-39402.47" y2="-51019.38" gradientTransform="matrix(1, 0, 0, -1, 39570.95, -50963.12)" gradientUnits="userSpaceOnUse"><stop offset="0.18" stop-color="#f7a600"/><stop offset="1" stop-color="#fdc300"/></linearGradient><linearGradient id="linear-gradient-2" x1="-39481.91" y1="-51212.56" x2="-39481.91" y2="-51096.55" gradientTransform="matrix(1, 0, 0, -1, 39570.95, -50963.12)" gradientUnits="userSpaceOnUse"><stop offset="0.18" stop-color="#fd0"/><stop offset="1" stop-color="#fdc300"/></linearGradient><linearGradient id="linear-gradient-3" x1="-39558.66" y1="-51130.01" x2="-39558.66" y2="-51019.38" xlink:href="#linear-gradient"/><linearGradient id="linear-gradient-4" x1="-39402.47" y1="-50979.9" x2="-39402.47" y2="-50869.27" xlink:href="#linear-gradient"/><linearGradient id="linear-gradient-5" x1="-39481.91" y1="-51062.44" x2="-39481.91" y2="-50946.43" xlink:href="#linear-gradient-2"/><linearGradient id="linear-gradient-6" x1="-39558.66" y1="-50979.9" x2="-39558.66" y2="-50869.27" xlink:href="#linear-gradient"/><linearGradient id="linear-gradient-7" x1="-31521.83" y1="-44148.27" x2="-31478.6" y2="-44118.44" gradientTransform="matrix(1, 0, 0, -1, 31628.5, -43927.72)" gradientUnits="userSpaceOnUse"><stop offset="0.03" stop-color="#a298ca"/><stop offset="0.66" stop-color="#7c6eb0"/></linearGradient><linearGradient id="linear-gradient-8" x1="-31490.53" y1="-44081.51" x2="-31412.1" y2="-44081.51" xlink:href="#linear-gradient-7"/><linearGradient id="linear-gradient-9" x1="-31660.84" y1="-44148.27" x2="-31617.61" y2="-44118.44" xlink:href="#linear-gradient-7"/><linearGradient id="linear-gradient-10" x1="-31629.54" y1="-44081.51" x2="-31551.11" y2="-44081.51" xlink:href="#linear-gradient-7"/><linearGradient id="linear-gradient-11" x1="-31521.83" y1="-44010.83" x2="-31478.6" y2="-43981" xlink:href="#linear-gradient-7"/><linearGradient id="linear-gradient-12" x1="-31490.53" y1="-43944.07" x2="-31412.1" y2="-43944.07" xlink:href="#linear-gradient-7"/><linearGradient id="linear-gradient-13" x1="-31660.84" y1="-44010.83" x2="-31617.61" y2="-43981" xlink:href="#linear-gradient-7"/><linearGradient id="linear-gradient-14" x1="-31629.54" y1="-43944.07" x2="-31551.11" y2="-43944.07" xlink:href="#linear-gradient-7"/><pattern id="Alyssa_2" data-name="Alyssa 2" width="144.13" height="138.36" patternUnits="userSpaceOnUse" viewBox="0 0 144.13 138.36"><rect class="cls-1" width="144.13" height="138.36"/><path class="cls-2" d="M211.07,158.52c-11.76-1.38-19.37.35-22.65,3.11-3,2.55-5,5.41-2.25,11.94,2.94,7.09,1.53,14.73-5.53,15.91-6.23,1-10.9-4.85-11.24-12.28-.24-5.18-1.91-8.3-5.54-7.61s-4.63,5.9-3.63,11.76c1.38,8.13,5.54,11.76,6.23,20.23.49,6.06-2.94,13.66-12.45,15-9.31,1.35-15.91-4.33-16.61-10.55-.73-6.59,3.63-10.9,3.12-17.64s-4-10.17-5.88-17.29c-2.77-10.55,1.21-19,7.78-22.66,14.74-8.15,22.83,3.64,36,1.56,10.89-1.73,23.35-18.16,33-19.54,8.23-1.18,13.83,4.66,15,14S221.72,159.78,211.07,158.52Zm-42.19.52a4.15,4.15,0,1,0-4.15,4.15A4.15,4.15,0,0,0,168.88,159Zm49.46-15.39a1.73,1.73,0,1,0-1.73,1.73A1.73,1.73,0,0,0,218.34,143.65Z"/><path class="cls-3" d="M48.83,139.33c0,7.17,4.59,13.82-1,16.34-8.5,3.83-28-14.34-28-36.17,0-12,8.67-19,17.84-19,12.33,0,18,8.17,18,17.5S48.83,131.14,48.83,139.33ZM43.42,134A2.08,2.08,0,1,0,41.35,136,2.07,2.07,0,0,0,43.42,134Z"/><path class="cls-4" d="M123.53,162.83c-7.87,2.74-19.44-15.3-17.67-27,1.24-8.23,7.13-13.19,13.09-14.22,7.53-1.29,12.9,2.6,13.3,7.25.55,6.3-3.63,7.51-4.22,14.95C127.46,150.93,131.72,160,123.53,162.83Zm-3.79-27.51a2.59,2.59,0,1,0-2.59,2.59A2.59,2.59,0,0,0,119.74,135.32Z"/><path class="cls-3" d="M19.39,140.36a2.6,2.6,0,1,1-2.6-2.59A2.59,2.59,0,0,1,19.39,140.36Z"/><path class="cls-4" d="M84.61,132.64c.74,8.1,12.67,7,17.9,14.21,10.52,14.48-1.21,46.37-21.63,46.37-11.74,0-24.21-9.72-24.21-29.22,0-15.83,10.16-21.5,8.25-42.17-1-10.83-12.5-20.34-12.5-34.75C52.42,81.16,56,73.64,64,73.64c7,0,10.82,6,10.82,12.9,0,6.79-5.38,15.74,1.38,19,5.24,2.57,13.21-4.77,19.5-6.75,5.19-1.63,12.39.23,14.75,8.5,2.53,8.88-3.26,14.75-11.59,16.7C92.51,125.5,84,126.2,84.61,132.64Zm-16-30.56a3.29,3.29,0,1,0-3.29,3.29A3.29,3.29,0,0,0,68.63,102.08Zm26,9.7a2.33,2.33,0,1,0-2.33-2.33A2.33,2.33,0,0,0,94.61,111.78Zm-20,59.67a3.29,3.29,0,1,0-3.29,3.28A3.29,3.29,0,0,0,74.63,171.45Z"/><path class="cls-2" d="M66.94,158.52c-11.76-1.38-19.36.35-22.65,3.11-3,2.55-5,5.41-2.25,11.94,2.94,7.09,1.54,14.73-5.53,15.91-6.23,1-10.9-4.85-11.24-12.28-.24-5.18-1.91-8.3-5.54-7.61s-4.63,5.9-3.63,11.76c1.39,8.13,5.54,11.76,6.23,20.23.49,6.06-2.94,13.66-12.45,15C.58,218-6,212.3-6.73,206.08c-.73-6.59,3.64-10.9,3.12-17.64s-4-10.17-5.88-17.29c-2.77-10.55,1.21-19,7.78-22.66,14.74-8.15,22.83,3.64,36,1.56,10.9-1.73,23.35-18.16,33-19.54,8.23-1.18,13.83,4.66,15,14S77.59,159.78,66.94,158.52ZM24.75,159a4.15,4.15,0,1,0-4.15,4.15A4.15,4.15,0,0,0,24.75,159Zm49.46-15.39a1.73,1.73,0,1,0-1.73,1.73A1.73,1.73,0,0,0,74.21,143.65Z"/><path class="cls-4" d="M190.32,112c0,6.22-4.15,10.72-8.64,11.58s-8.32-1.28-13,1.21c-4.84,2.6-7.09,11.07-16.77,11.07-8,0-15.22-7.95-15.22-18.85,0-20.23,13.14-29.22,25.6-29.22C178.91,87.78,190.32,100.4,190.32,112ZM170.61,97.63a3.81,3.81,0,1,0-3.81,3.81A3.81,3.81,0,0,0,170.61,97.63Z"/><path class="cls-2" d="M211.07,20.16c-11.76-1.38-19.37.34-22.65,3.11-3,2.55-5,5.41-2.25,11.93,2.94,7.09,1.53,14.74-5.53,15.91-6.23,1-10.9-4.84-11.24-12.27-.24-5.19-1.91-8.3-5.54-7.61s-4.63,5.9-3.63,11.76c1.38,8.12,5.54,11.76,6.23,20.23.49,6-2.94,13.66-12.45,15-9.31,1.36-15.91-4.32-16.61-10.54-.73-6.59,3.63-10.9,3.12-17.64s-4-10.17-5.88-17.3c-2.77-10.55,1.21-19,7.78-22.65,14.74-8.15,22.83,3.64,36,1.55,10.89-1.72,23.35-18.15,33-19.54,8.23-1.17,13.83,4.67,15,14S221.72,21.41,211.07,20.16Zm-42.19.52a4.15,4.15,0,1,0-4.15,4.15A4.15,4.15,0,0,0,168.88,20.68ZM218.34,5.29A1.73,1.73,0,1,0,216.61,7,1.73,1.73,0,0,0,218.34,5.29Z"/><path class="cls-4" d="M31.83,83.64c-13.95,2-21.16-13.33-17.66-20.33,3.66-7.34,12.12-4.17,19.5-4.17,9.66,0,16.36-7.57,20.41-2.25C58.33,62.47,49.07,81.18,31.83,83.64Zm.53-17.48a2.25,2.25,0,1,0-2.25,2.25A2.25,2.25,0,0,0,32.36,66.16Z"/><path class="cls-3" d="M48.83,1c0,7.17,4.59,13.82-1,16.33-8.5,3.84-28-14.33-28-36.16,0-12,8.67-19,17.84-19,12.33,0,18,8.16,18,17.5S48.83-7.22,48.83,1ZM43.42-4.4a2.07,2.07,0,0,0-2.07-2.07A2.08,2.08,0,0,0,39.27-4.4a2.08,2.08,0,0,0,2.08,2.08A2.07,2.07,0,0,0,43.42-4.4Z"/><path class="cls-4" d="M46.19,112c0,6.22-4.15,10.72-8.64,11.58s-8.32-1.28-13,1.21c-4.85,2.6-7.09,11.07-16.78,11.07-8,0-15.22-7.95-15.22-18.85,0-20.23,13.15-29.22,25.6-29.22C34.78,87.78,46.19,100.4,46.19,112ZM26.48,97.63a3.81,3.81,0,1,0-3.81,3.81A3.81,3.81,0,0,0,26.48,97.63Z"/><path class="cls-2" d="M45.5,88.3a2.42,2.42,0,1,1-2.42-2.43A2.42,2.42,0,0,1,45.5,88.3Z"/><path class="cls-4" d="M129.2,69.79c-3.19,4.68,1,10.72-1.38,15.22s-6.75,5-9.86,2.59c-3.63-2.82-3.41-6.64-8.3-8.82-5.53-2.46-18,2.25-19.72-7.26-.87-4.81,2.38-8.57,7.27-9.68,6.05-1.39,9.35-.18,15.39-3.12s11.24-9,22.13-12.1c10.41-3,16.08,1.55,16.61,5.88C152.37,61,134.21,62.45,129.2,69.79ZM127,62.35a2.25,2.25,0,1,0-2.25,2.25A2.24,2.24,0,0,0,127,62.35Z"/><path class="cls-3" d="M156.17,109c0,17.17-14.5,25.5-27,22.83-10.27-2.19-12.84-17.33-16.67-26.16-3.71-8.56-8.83-22.5-20.17-22.5-11.19,0-12.83,14.5-23.66,14.5-11,0-24.5-15.67-24.5-39.67C44.17,43.3,54,26.52,65,27.3,76.67,28.14,69.5,47,80.33,47c9.5,0,7.86-16.26,9.17-23.33,1.67-9,6.83-14.17,18.5-13.17,14.44,1.24,22.33,13.5,18.87,23.35-4,11.45-23.87,17.32-21.54,30.49,1.35,7.59,13,12,26,16.16C145.86,85.13,156.17,91.8,156.17,109ZM111.22,33.13a3.29,3.29,0,1,0,3.28-3.29A3.28,3.28,0,0,0,111.22,33.13ZM64.52,58a1.73,1.73,0,1,0-1.73,1.73A1.73,1.73,0,0,0,64.52,58ZM82,68.75a3.81,3.81,0,1,0-3.81,3.81A3.8,3.8,0,0,0,82,68.75Zm19.89-15.56a1.56,1.56,0,1,0-1.56,1.56A1.56,1.56,0,0,0,101.88,53.19Zm29.64,54.69a3.18,3.18,0,1,0-3.17,3.18A3.17,3.17,0,0,0,131.52,107.88Z"/><path class="cls-4" d="M123.53,24.47c-7.87,2.73-19.44-15.3-17.67-27C107.1-10.78,113-15.74,119-16.77c7.53-1.3,12.9,2.6,13.3,7.24.55,6.31-3.63,7.52-4.22,15C127.46,12.57,131.72,21.62,123.53,24.47ZM119.74-3a2.59,2.59,0,0,0-2.59-2.6A2.59,2.59,0,0,0,114.56-3a2.59,2.59,0,0,0,2.59,2.59A2.59,2.59,0,0,0,119.74-3Z"/><path class="cls-3" d="M19.39,2a2.6,2.6,0,1,1-2.6-2.59A2.59,2.59,0,0,1,19.39,2Z"/><path class="cls-3" d="M153.39,88.74c0-8.41-5.08-15.23-11.34-15.23s-11.34,6.82-11.34,15.23,5.07,12.44,11.34,12.44S153.39,97.15,153.39,88.74Z"/><path class="cls-4" d="M84.61-5.72c.74,8.1,12.67,7,17.9,14.21C113,23,101.3,54.86,80.88,54.86c-11.74,0-24.21-9.72-24.21-29.22,0-15.84,10.16-21.5,8.25-42.17-1-10.83-12.5-20.34-12.5-34.75C52.42-57.2,56-64.73,64-64.73c7,0,10.82,6,10.82,12.9s-5.38,15.75,1.38,19c5.24,2.57,13.21-4.77,19.5-6.75,5.19-1.63,12.39.23,14.75,8.5,2.53,8.88-3.26,14.75-11.59,16.7C92.51-12.86,84-12.16,84.61-5.72Zm-16-30.56a3.29,3.29,0,0,0-3.29-3.29,3.29,3.29,0,0,0-3.29,3.29A3.29,3.29,0,0,0,65.34-33,3.28,3.28,0,0,0,68.63-36.28Zm26,9.69a2.33,2.33,0,0,0,2.33-2.33,2.32,2.32,0,0,0-2.33-2.32,2.32,2.32,0,0,0-2.33,2.32A2.33,2.33,0,0,0,94.61-26.59Zm-20,59.68a3.29,3.29,0,1,0-3.29,3.28A3.29,3.29,0,0,0,74.63,33.09Z"/><path class="cls-2" d="M66.94,20.16c-11.76-1.38-19.36.34-22.65,3.11-3,2.55-5,5.41-2.25,11.93,2.94,7.09,1.54,14.74-5.53,15.91-6.23,1-10.9-4.84-11.24-12.27-.24-5.19-1.91-8.3-5.54-7.61S15.1,37.13,16.1,43c1.39,8.12,5.54,11.76,6.23,20.23.49,6-2.94,13.66-12.45,15C.58,79.62-6,73.94-6.73,67.72c-.73-6.59,3.64-10.9,3.12-17.64s-4-10.17-5.88-17.3c-2.77-10.55,1.21-19,7.78-22.65C13,2,21.12,13.77,34.26,11.68,45.16,10,57.61-6.47,67.29-7.86c8.23-1.17,13.83,4.67,15,14S77.59,21.41,66.94,20.16Zm-42.19.52a4.15,4.15,0,1,0-4.15,4.15A4.15,4.15,0,0,0,24.75,20.68ZM74.21,5.29A1.73,1.73,0,1,0,72.48,7,1.73,1.73,0,0,0,74.21,5.29Z"/><path class="cls-2" d="M130.24,42.47a1.39,1.39,0,1,1-1.39-1.39A1.38,1.38,0,0,1,130.24,42.47Z"/><path class="cls-5" d="M135.77,4.08a2.25,2.25,0,1,1-2.25-2.25A2.25,2.25,0,0,1,135.77,4.08Z"/><path class="cls-6" d="M52.25,27.25A1.22,1.22,0,1,1,51,26,1.22,1.22,0,0,1,52.25,27.25Z"/><path class="cls-6" d="M48.61,95.73a1.38,1.38,0,1,1-1.38-1.38A1.38,1.38,0,0,1,48.61,95.73Z"/><path class="cls-3" d="M133.18,73.77A1.21,1.21,0,1,1,132,72.56,1.21,1.21,0,0,1,133.18,73.77Z"/><path class="cls-7" d="M95.89,91.69a3.41,3.41,0,1,1-3.41-3.4A3.41,3.41,0,0,1,95.89,91.69Z"/><path class="cls-3" d="M100.87,131.55a2.1,2.1,0,1,1-2.1-2.1A2.1,2.1,0,0,1,100.87,131.55Z"/><path class="cls-3" d="M62.07,125.25a1.58,1.58,0,1,1-1.57-1.57A1.58,1.58,0,0,1,62.07,125.25Z"/><path class="cls-7" d="M135.74,11.21a2.62,2.62,0,1,1-2.62-2.63A2.63,2.63,0,0,1,135.74,11.21Z"/><circle class="cls-4" cx="123.16" cy="46.07" r="2.36"/><path class="cls-5" d="M27.72,52.63A2.62,2.62,0,1,1,25.1,50,2.62,2.62,0,0,1,27.72,52.63Z"/><path class="cls-4" d="M22.74,45.55a1.31,1.31,0,1,1-1.31-1.31A1.31,1.31,0,0,1,22.74,45.55Z"/><path class="cls-3" d="M87,97.46a1.58,1.58,0,1,1-1.58-1.57A1.57,1.57,0,0,1,87,97.46Z"/><path class="cls-4" d="M-14.93,69.79c-3.19,4.68,1,10.72-1.38,15.22s-6.75,5-9.86,2.59c-3.63-2.82-3.41-6.64-8.3-8.82-5.53-2.46-18,2.25-19.72-7.26-.87-4.81,2.38-8.57,7.27-9.68,6.05-1.39,9.35-.18,15.39-3.12s11.24-9,22.14-12.1c10.4-3,16.07,1.55,16.6,5.88C8.24,61-9.92,62.45-14.93,69.79Zm-2.25-7.44a2.24,2.24,0,0,0-2.25-2.24,2.24,2.24,0,0,0-2.24,2.24,2.24,2.24,0,0,0,2.24,2.25A2.24,2.24,0,0,0-17.18,62.35Z"/><path class="cls-3" d="M12,109c0,17.17-14.5,25.5-27,22.83-10.27-2.19-12.84-17.33-16.67-26.16-3.71-8.56-8.83-22.5-20.17-22.5s-12.83,14.5-23.66,14.5C-86.46,97.64-100,82-100,58c0-14.67,9.8-31.45,20.83-30.67C-67.46,28.14-74.63,47-63.8,47c9.5,0,7.86-16.26,9.17-23.33,1.67-9,6.83-14.17,18.5-13.17C-21.69,11.71-13.8,24-17.26,33.82c-4,11.45-23.87,17.32-21.54,30.49,1.35,7.59,13,12,26,16.16C1.73,85.13,12,91.8,12,109ZM-32.91,33.13a3.28,3.28,0,0,0,3.28,3.28,3.28,3.28,0,0,0,3.29-3.28,3.29,3.29,0,0,0-3.29-3.29A3.28,3.28,0,0,0-32.91,33.13ZM-79.61,58a1.73,1.73,0,0,0-1.73-1.73A1.74,1.74,0,0,0-83.07,58a1.73,1.73,0,0,0,1.73,1.73A1.72,1.72,0,0,0-79.61,58Zm17.47,10.72a3.8,3.8,0,0,0-3.8-3.8,3.81,3.81,0,0,0-3.81,3.8,3.82,3.82,0,0,0,3.81,3.81A3.81,3.81,0,0,0-62.14,68.75Zm19.89-15.56a1.56,1.56,0,0,0-1.56-1.56,1.55,1.55,0,0,0-1.55,1.56,1.55,1.55,0,0,0,1.55,1.56A1.56,1.56,0,0,0-42.25,53.19Zm29.64,54.69a3.17,3.17,0,0,0-3.17-3.17A3.18,3.18,0,0,0-19,107.88a3.18,3.18,0,0,0,3.18,3.18A3.17,3.17,0,0,0-12.61,107.88Z"/><path class="cls-3" d="M9.26,88.74c0-8.41-5.08-15.23-11.34-15.23s-11.34,6.82-11.34,15.23,5.07,12.44,11.34,12.44S9.26,97.15,9.26,88.74Z"/></pattern><pattern id="Plume1" data-name="Plume1" width="139.01" height="137.44" patternUnits="userSpaceOnUse" viewBox="0 0 139.01 137.44"><rect class="cls-1" width="139.01" height="137.44"/><path class="cls-16" d="M138.93,136.2c-6.61,7.87-10.85,30.65,2,51.84,12.62,20.87,38.33,28.2,35.44,51.75-2-5.57-8.44-8.47-15.13-8.47-5,0-10.76,2.59-10.76,8.84a6.4,6.4,0,0,0,6.3,6.48,5.23,5.23,0,0,0,4.14-8.51c2.53.93,5,3.38,5,8.31,0,5.51-5.06,11.29-13.58,11.29a17.17,17.17,0,0,1-16.81-17c0-15.32,16.69-20.8,27.54-15.56-12.64-11.35-38.52-1.78-46.16-25.41a11.3,11.3,0,0,0,10,4.06c-3.9-1.95-8-5.95-10.45-12.32-3.91-10-1.57-15.62-7.86-21.69a35,35,0,0,1,18.24,16c-4.4-14.94-10-25.92-24.17-34.71,9.22,1.84,14.07,3.86,21.75,10.54C126.25,149.41,130.59,143.57,138.93,136.2Z"/><path class="cls-17" d="M183.53,237.48c-2.66-22.62-17.29-27.68-31.2-42.63-18-19.33-17-46.14-8.35-60.41-2.11,14.3.51,27.42,9.23,38.67-5.09-17.12-4.22-35.12,4.17-49-1.19,9.25-1,14.25,2,22.62.88-18,8.54-30.68,22.85-41.52-5.72,9.64-8.59,22-7,31.86,6.33-25.87,24.07-37,36.74-40.65a39.37,39.37,0,0,0-8.18,18.24c9.38-19.56,27.76-22.31,37.79-28.34C248.74,82,245.74,74,241.37,74c-2.38,0-3.75,1.37-5.13,4,1-5.25,4.38-7.88,8-7.88,5.31,0,9.33,5.25,9.33,11.72,0,17.26-22.93,29.47-48.95,44.26-22.41,12.74-32.5,22.27-35.81,40-3.36,18,5.93,35.15,5.93,35.15s-8.56-29.6,4.63-47.87c12-16.62,30.33-23.92,47.25-33.87,18.69-11,35.87-22.63,30.72-41.51,9.45,9.45,12.72,24.28,5.28,33.39-9.57,11.72-28.53,14.24-36,21.75,13.15-6.63,25.22-4.11,34.71-7.91,9.32-3.72,9.22-14.28,9.22-14.28,3.85,13.31,0,28.65-15.38,34.28-16.13,5.9-34.73-1.75-51.4,7.68,17.88-6.2,38.65-3.18,50.14,15.82-4.56-4.56-13.31-6.15-20-6.15,15.6,8.72,13.79,31.71-.48,36.16,0,0,4.59-3.25,4.59-11.51,0-11.09-9.77-20.35-28-20.35-12.38,0-22.94,5.25-27.5,13.93,4.94-5.8,13.28-9.88,22.63-9.88,13.31,0,18.56,9.78,18.67,17.45a18,18,0,0,1-9.45,15.94c5.71-6.31,1.21-14.94-6.81-14.94-11.65,0-16.48,14.13-14.28,25.71,2.68-9.83,7.93-15,17.58-16.7-7,5.62-9.65,11.37-8.57,20.87,6.17-13.63,18.45-6.81,24.17-20.43,1.37,7.55.12,19-10.8,24.28C203.35,229,193.19,226.27,183.53,237.48Z"/><path class="cls-18" d="M226.37,198.81c1.37,7.55.12,19-10.8,24.28-12.22,5.94-22.38,3.18-32,14.39,7.94-17.55-3.21-27.88,1.36-42.69,4.49-14.58,18.68-17.58,26.36-14.5,9.78,3.92,11.16,17.88,3,24,5.71-6.31,1.21-14.94-6.81-14.94-11.65,0-16.48,14.13-14.28,25.71,2.68-9.83,7.93-15,17.58-16.7-7,5.62-9.65,11.37-8.57,20.87C208.37,205.61,220.65,212.43,226.37,198.81Zm-43.94-18c4.56-8.68,15.12-13.93,27.5-13.93,18.25,0,28,9.26,28,20.35,0,8.26-4.59,11.51-4.59,11.51,14.27-4.45,16.08-27.44.48-36.16,6.73,0,15.48,1.59,20,6.15C234.72,146.26,186.08,152.48,182.43,180.79Zm88.09-69.86c2.31,17.76-7.31,25.1-29.79,27-28.54,2.42-37,14.95-37,14.95,16.67-9.43,35.27-1.78,51.4-7.68C270.52,139.58,274.37,124.24,270.52,110.93Zm-43.93,22.19c7.5-7.51,26.46-10,36-21.75,7.44-9.11,4.17-23.94-5.28-33.39,6.41,9,7.72,20.67.55,29.1C248,118.7,235.16,119.4,226.59,133.12Zm27-51.29c0-6.47-4-11.72-9.33-11.72,8.18,2.21,8.8,16.16-4,27.07-11.27,9.56-28.22,18.11-44.66,28.43S164,149,164,170.27c0,17.27,10.79,31,10.79,31s-9.29-17.19-5.93-35.15c3.31-17.72,13.4-27.25,35.81-40C230.64,111.3,253.57,99.09,253.57,81.83ZM140.91,188c-12.83-21.19-8.59-44-2-51.84-8.3,8.3-14.44,27.66-7.83,45.83,5.23,14.35,16.62,24.57,30.89,35.46,8.67,6.61,13.63,14.25,14.36,22.3C179.24,216.24,153.53,208.91,140.91,188Zm20.31,43.28a20.83,20.83,0,0,1,8,1.53c-6.89-7.94-25.9-5.13-25.9,7.69a11.29,11.29,0,0,0,11.37,11.52c8.85,0,11.83-9.39,6.22-13.93a5.23,5.23,0,0,1-4.14,8.51,6.4,6.4,0,0,1-6.3-6.48C150.46,233.91,156.25,231.32,161.22,231.32Z"/><path class="cls-19" d="M-.08,136.2c-6.61,7.87-10.85,30.65,2,51.84,12.62,20.87,38.33,28.2,35.44,51.75-2-5.57-8.44-8.47-15.13-8.47-5,0-10.76,2.59-10.76,8.84a6.4,6.4,0,0,0,6.3,6.48,5.23,5.23,0,0,0,4.14-8.51c2.52.93,5.05,3.38,5.05,8.31,0,5.51-5.06,11.29-13.59,11.29a17.17,17.17,0,0,1-16.8-17c0-15.32,16.69-20.8,27.54-15.56-12.64-11.35-38.52-1.78-46.16-25.41a11.3,11.3,0,0,0,10,4.06c-3.9-1.95-8-5.95-10.45-12.32-3.91-10-1.57-15.62-7.86-21.69a35,35,0,0,1,18.24,16c-4.4-14.94-10-25.92-24.17-34.71,9.22,1.84,14.07,3.86,21.75,10.54C-12.76,149.41-8.42,143.57-.08,136.2Z"/><path class="cls-20" d="M44.52,237.48c-2.67-22.62-17.29-27.68-31.2-42.63-18-19.33-17-46.14-8.35-60.41-2.12,14.3.51,27.42,9.23,38.67C9.1,156,10,138,18.37,124.12c-1.19,9.25-1,14.25,2,22.62.88-18,8.54-30.68,22.85-41.52-5.72,9.64-8.6,22-7,31.86,6.33-25.87,24.07-37,36.74-40.65a39.37,39.37,0,0,0-8.18,18.24c9.37-19.56,27.76-22.31,37.78-28.34C109.73,82,106.73,74,102.35,74c-2.37,0-3.75,1.37-5.12,4,1-5.25,4.37-7.88,8-7.88,5.31,0,9.33,5.25,9.33,11.72,0,17.26-22.93,29.47-48.95,44.26-22.41,12.74-32.51,22.27-35.81,40-3.36,18,5.93,35.15,5.93,35.15s-8.56-29.6,4.62-47.87c12-16.62,30.34-23.92,47.25-33.87,18.7-11,35.88-22.63,30.73-41.51,9.45,9.45,12.72,24.28,5.27,33.39-9.56,11.72-28.52,14.24-36,21.75,13.15-6.63,25.22-4.11,34.71-7.91,9.31-3.72,9.22-14.28,9.22-14.28,3.84,13.31,0,28.65-15.38,34.28-16.13,5.9-34.73-1.75-51.4,7.68,17.88-6.2,38.65-3.18,50.14,15.82-4.56-4.56-13.31-6.15-20-6.15,15.6,8.72,13.79,31.71-.49,36.16,0,0,4.6-3.25,4.6-11.51,0-11.09-9.77-20.35-28-20.35-12.38,0-22.94,5.25-27.5,13.93,4.93-5.8,13.28-9.88,22.63-9.88,13.3,0,18.56,9.78,18.67,17.45a18,18,0,0,1-9.45,15.94c5.71-6.31,1.21-14.94-6.81-14.94-11.65,0-16.48,14.13-14.28,25.71,2.67-9.83,7.92-15,17.58-16.7-7,5.62-9.66,11.37-8.57,20.87,6.16-13.63,18.45-6.81,24.17-20.43,1.37,7.55.12,19-10.8,24.28C64.34,229,54.18,226.27,44.52,237.48Z"/><path class="cls-18" d="M87.36,198.81c1.37,7.55.12,19-10.8,24.28-12.22,5.94-22.38,3.18-32,14.39,7.94-17.55-3.21-27.88,1.36-42.69,4.49-14.58,18.68-17.58,26.36-14.5,9.78,3.92,11.16,17.88,3,24,5.71-6.31,1.21-14.94-6.81-14.94-11.65,0-16.48,14.13-14.28,25.71,2.67-9.83,7.92-15,17.58-16.7-7,5.62-9.66,11.37-8.57,20.87C69.35,205.61,81.64,212.43,87.36,198.81Zm-43.94-18c4.56-8.68,15.12-13.93,27.5-13.93,18.25,0,28,9.26,28,20.35,0,8.26-4.6,11.51-4.6,11.51,14.28-4.45,16.09-27.44.49-36.16,6.73,0,15.48,1.59,20,6.15C95.71,146.26,47.07,152.48,43.42,180.79Zm88.09-69.86c2.31,17.76-7.31,25.1-29.79,27-28.55,2.42-37,14.95-37,14.95,16.67-9.43,35.27-1.78,51.4-7.68C131.5,139.58,135.35,124.24,131.51,110.93ZM87.58,133.12c7.5-7.51,26.46-10,36-21.75,7.45-9.11,4.18-23.94-5.27-33.39,6.41,9,7.72,20.67.55,29.1C109,118.7,96.15,119.4,87.58,133.12Zm27-51.29c0-6.47-4-11.72-9.33-11.72,8.18,2.21,8.8,16.16-4,27.07C89.92,106.74,73,115.29,56.53,125.61S24.94,149,24.94,170.27c0,17.27,10.79,31,10.79,31S26.44,184,29.8,166.08c3.3-17.72,13.4-27.25,35.81-40C91.63,111.3,114.56,99.09,114.56,81.83ZM1.9,188c-12.83-21.19-8.59-44-2-51.84-8.3,8.3-14.44,27.66-7.83,45.83C-2.68,196.38,8.71,206.6,23,217.49c8.67,6.61,13.62,14.25,14.36,22.3C40.23,216.24,14.52,208.91,1.9,188Zm20.31,43.28a20.74,20.74,0,0,1,8,1.53c-6.88-7.94-25.89-5.13-25.89,7.69a11.29,11.29,0,0,0,11.37,11.52c8.85,0,11.83-9.39,6.22-13.93a5.23,5.23,0,0,1-4.14,8.51,6.4,6.4,0,0,1-6.3-6.48C11.45,233.91,17.24,231.32,22.21,231.32Z"/><path class="cls-21" d="M138.93-1.24c-6.61,7.87-10.85,30.65,2,51.84,12.62,20.87,38.33,28.2,35.44,51.75-2-5.57-8.44-8.47-15.13-8.47-5,0-10.76,2.59-10.76,8.84a6.4,6.4,0,0,0,6.3,6.48,5.23,5.23,0,0,0,4.14-8.51c2.53.93,5,3.38,5,8.31,0,5.51-5.06,11.29-13.58,11.29a17.17,17.17,0,0,1-16.81-17c0-15.32,16.69-20.8,27.54-15.56C150.46,76.38,124.58,86,116.94,62.32a11.3,11.3,0,0,0,10,4.06c-3.9-1.95-8-5.95-10.45-12.32-3.91-10-1.57-15.62-7.86-21.69a35,35,0,0,1,18.24,16c-4.4-14.94-10-25.93-24.17-34.71,9.22,1.84,14.07,3.86,21.75,10.54C126.25,12,130.59,6.13,138.93-1.24Z"/><path class="cls-22" d="M183.53,100c-2.66-22.61-17.29-27.67-31.2-42.62-18-19.33-17-46.14-8.35-60.41-2.11,14.3.51,27.42,9.23,38.67-5.09-17.12-4.22-35.12,4.17-49-1.19,9.25-1,14.25,2,22.62.88-18,8.54-30.68,22.85-41.52-5.72,9.64-8.59,22-7,31.86,6.33-25.87,24.07-37,36.74-40.65a39.37,39.37,0,0,0-8.18,18.24c9.38-19.56,27.76-22.31,37.79-28.34,7.21-4.34,4.21-12.34-.16-12.34-2.38,0-3.75,1.37-5.13,4,1-5.25,4.38-7.88,8-7.88,5.31,0,9.33,5.25,9.33,11.72,0,17.26-22.93,29.47-48.95,44.26-22.41,12.74-32.5,22.27-35.81,40-3.36,18,5.93,35.15,5.93,35.15s-8.56-29.6,4.63-47.87C191.37-.7,209.7-8,226.62-17.95c18.69-11,35.87-22.63,30.72-41.51,9.45,9.45,12.72,24.28,5.28,33.39-9.57,11.72-28.53,14.24-36,21.75,13.15-6.63,25.22-4.11,34.71-7.91,9.32-3.72,9.22-14.28,9.22-14.28,3.85,13.31,0,28.65-15.38,34.28C239,13.67,220.41,6,203.74,15.45c17.88-6.2,38.65-3.18,50.14,15.82-4.56-4.56-13.31-6.15-20-6.15,15.6,8.72,13.79,31.7-.48,36.16,0,0,4.59-3.25,4.59-11.51,0-11.09-9.77-20.35-28-20.35-12.38,0-22.94,5.25-27.5,13.93,4.94-5.8,13.28-9.88,22.63-9.88,13.31,0,18.56,9.78,18.67,17.45a18,18,0,0,1-9.45,15.94c5.71-6.31,1.21-14.94-6.81-14.94-11.65,0-16.48,14.13-14.28,25.71,2.68-9.83,7.93-15,17.58-16.7-7,5.62-9.65,11.37-8.57,20.87,6.17-13.63,18.45-6.81,24.17-20.43,1.37,7.55.12,19-10.8,24.28C203.35,91.59,193.19,88.83,183.53,100Z"/><path class="cls-18" d="M131.5,95.13c-.31-5.33,7.82-10.37,15.23-10.14C137.84,81.52,124.24,85.47,131.5,95.13Z"/><path class="cls-18" d="M226.37,61.37c1.37,7.55.12,19-10.8,24.28-12.22,5.94-22.38,3.18-32,14.38,7.94-17.54-3.21-27.87,1.36-42.68,4.49-14.58,18.68-17.58,26.36-14.5,9.78,3.92,11.16,17.88,3,24,5.71-6.31,1.21-14.94-6.81-14.94-11.65,0-16.48,14.13-14.28,25.71,2.68-9.83,7.93-15,17.58-16.7-7,5.62-9.65,11.37-8.57,20.87C208.37,68.17,220.65,75,226.37,61.37Zm-43.94-18c4.56-8.68,15.12-13.93,27.5-13.93,18.25,0,28,9.26,28,20.35,0,8.26-4.59,11.51-4.59,11.51,14.27-4.46,16.08-27.44.48-36.16,6.73,0,15.48,1.59,20,6.15C234.72,8.81,186.08,15,182.43,43.35Zm88.09-69.86c2.31,17.76-7.31,25.1-29.79,27-28.54,2.42-37,15-37,15C220.41,6,239,13.67,255.14,7.77,270.52,2.14,274.37-13.2,270.52-26.51ZM226.59-4.32c7.5-7.51,26.46-10,36-21.75,7.44-9.11,4.17-23.94-5.28-33.39,6.41,9,7.72,20.67.55,29.1C248-18.74,235.16-18,226.59-4.32Zm27-51.29c0-6.47-4-11.72-9.33-11.72,8.18,2.21,8.8,16.16-4,27.07C228.93-30.7,212-22.15,195.54-11.83S164,11.55,164,32.83c0,17.27,10.79,31,10.79,31s-9.29-17.19-5.93-35.15c3.31-17.72,13.4-27.25,35.81-40C230.64-26.14,253.57-38.35,253.57-55.61ZM140.91,50.6c-12.83-21.19-8.59-44-2-51.84-8.3,8.3-14.44,27.66-7.83,45.83,5.23,14.35,16.62,24.57,30.89,35.46,8.67,6.61,13.63,14.25,14.36,22.3C179.24,78.8,153.53,71.47,140.91,50.6Zm20.31,43.28a20.83,20.83,0,0,1,8,1.53c-6.89-7.94-25.9-5.13-25.9,7.69a11.29,11.29,0,0,0,11.37,11.52c8.85,0,11.83-9.39,6.22-13.93a5.23,5.23,0,0,1-4.14,8.51,6.4,6.4,0,0,1-6.3-6.48C150.46,96.47,156.25,93.88,161.22,93.88Z"/><path class="cls-18" d="M152.22,127.2c-5.31,2.34-13.52-4-16.1-11.7C136,125.89,145.13,138.27,152.22,127.2Z"/><path class="cls-23" d="M-.08-1.24c-6.61,7.87-10.85,30.65,2,51.84,12.62,20.87,38.33,28.2,35.44,51.75-2-5.57-8.44-8.47-15.13-8.47-5,0-10.76,2.59-10.76,8.84a6.4,6.4,0,0,0,6.3,6.48,5.23,5.23,0,0,0,4.14-8.51c2.52.93,5.05,3.38,5.05,8.31,0,5.51-5.06,11.29-13.59,11.29a17.17,17.17,0,0,1-16.8-17c0-15.32,16.69-20.8,27.54-15.56C11.45,76.38-14.43,86-22.07,62.32a11.3,11.3,0,0,0,10,4.06c-3.9-1.95-8-5.95-10.45-12.32-3.91-10-1.57-15.62-7.86-21.69a35,35,0,0,1,18.24,16c-4.4-14.94-10-25.93-24.17-34.71,9.22,1.84,14.07,3.86,21.75,10.54C-12.76,12-8.42,6.13-.08-1.24Z"/><path class="cls-24" d="M44.52,100c-2.67-22.61-17.29-27.67-31.2-42.62C-4.68,38.08-3.67,11.27,5-3c-2.12,14.3.51,27.42,9.23,38.67C9.1,18.55,10,.55,18.37-13.32c-1.19,9.25-1,14.25,2,22.62.88-18,8.54-30.68,22.85-41.52-5.72,9.64-8.6,22-7,31.86C42.5-26.23,60.24-37.32,72.91-41a39.37,39.37,0,0,0-8.18,18.24c9.37-19.56,27.76-22.31,37.78-28.34,7.22-4.34,4.22-12.34-.16-12.34-2.37,0-3.75,1.37-5.12,4,1-5.25,4.37-7.88,8-7.88,5.31,0,9.33,5.25,9.33,11.72,0,17.26-22.93,29.47-48.95,44.26C43.2,1.39,33.1,10.92,29.8,28.64c-3.36,18,5.93,35.15,5.93,35.15s-8.56-29.6,4.62-47.87C52.35-.7,70.69-8,87.6-17.95c18.7-11,35.88-22.63,30.73-41.51,9.45,9.45,12.72,24.28,5.27,33.39C114-14.35,95.08-11.83,87.58-4.32c13.15-6.63,25.22-4.11,34.71-7.91,9.31-3.72,9.22-14.28,9.22-14.28,3.84,13.31,0,28.65-15.38,34.28C100,13.67,81.4,6,64.73,15.45c17.88-6.2,38.65-3.18,50.14,15.82-4.56-4.56-13.31-6.15-20-6.15,15.6,8.72,13.79,31.7-.49,36.16,0,0,4.6-3.25,4.6-11.51,0-11.09-9.77-20.35-28-20.35-12.38,0-22.94,5.25-27.5,13.93,4.93-5.8,13.28-9.88,22.63-9.88,13.3,0,18.56,9.78,18.67,17.45a18,18,0,0,1-9.45,15.94c5.71-6.31,1.21-14.94-6.81-14.94C56.81,51.92,52,66.05,54.18,77.63c2.67-9.83,7.92-15,17.58-16.7-7,5.62-9.66,11.37-8.57,20.87C69.35,68.17,81.64,75,87.36,61.37c1.37,7.55.12,19-10.8,24.28C64.34,91.59,54.18,88.83,44.52,100Z"/><path class="cls-18" d="M-7.51,95.13C-7.82,89.8.31,84.76,7.72,85-1.17,81.52-14.78,85.47-7.51,95.13Z"/><path class="cls-18" d="M90.36,76.63C91.54,82.31,83.58,89,75.57,90,85.69,92.27,99.71,85.87,90.36,76.63Z"/><path class="cls-18" d="M87.36,61.37c1.37,7.55.12,19-10.8,24.28-12.22,5.94-22.38,3.18-32,14.38,7.94-17.54-3.21-27.87,1.36-42.68,4.49-14.58,18.68-17.58,26.36-14.5,9.78,3.92,11.16,17.88,3,24,5.71-6.31,1.21-14.94-6.81-14.94C56.81,51.92,52,66.05,54.18,77.63c2.67-9.83,7.92-15,17.58-16.7-7,5.62-9.66,11.37-8.57,20.87C69.35,68.17,81.64,75,87.36,61.37Zm-43.94-18C48,34.67,58.54,29.42,70.92,29.42c18.25,0,28,9.26,28,20.35,0,8.26-4.6,11.51-4.6,11.51,14.28-4.46,16.09-27.44.49-36.16,6.73,0,15.48,1.59,20,6.15C95.71,8.81,47.07,15,43.42,43.35Zm88.09-69.86c2.31,17.76-7.31,25.1-29.79,27-28.55,2.42-37,15-37,15C81.4,6,100,13.67,116.13,7.77,131.5,2.14,135.35-13.2,131.51-26.51ZM87.58-4.32c7.5-7.51,26.46-10,36-21.75,7.45-9.11,4.18-23.94-5.27-33.39,6.41,9,7.72,20.67.55,29.1C109-18.74,96.15-18,87.58-4.32Zm27-51.29c0-6.47-4-11.72-9.33-11.72,8.18,2.21,8.8,16.16-4,27.07C89.92-30.7,73-22.15,56.53-11.83S24.94,11.55,24.94,32.83c0,17.27,10.79,31,10.79,31S26.44,46.6,29.8,28.64c3.3-17.72,13.4-27.25,35.81-40C91.63-26.14,114.56-38.35,114.56-55.61ZM1.9,50.6c-12.83-21.19-8.59-44-2-51.84-8.3,8.3-14.44,27.66-7.83,45.83C-2.68,58.94,8.71,69.16,23,80.05c8.67,6.61,13.62,14.25,14.36,22.3C40.23,78.8,14.52,71.47,1.9,50.6ZM22.21,93.88a20.74,20.74,0,0,1,8,1.53C23.31,87.47,4.3,90.28,4.3,103.1a11.29,11.29,0,0,0,11.37,11.52c8.85,0,11.83-9.39,6.22-13.93a5.23,5.23,0,0,1-4.14,8.51,6.4,6.4,0,0,1-6.3-6.48C11.45,96.47,17.24,93.88,22.21,93.88Z"/><path class="cls-18" d="M101.63,64.93c5.74-.84,9.31-10.62,7.42-18.47C114.71,55.17,113.52,70.53,101.63,64.93Z"/><path class="cls-18" d="M13.21,127.2c-5.31,2.34-13.52-4-16.1-11.7C-3,125.89,6.12,138.27,13.21,127.2Z"/></pattern><pattern id="Paletó" data-name="Paletó" width="156.19" height="150.12" patternUnits="userSpaceOnUse" viewBox="0 0 156.19 150.12"><rect class="cls-1" width="156.19" height="150.12"/><path class="cls-10" d="M209.14,87.85c-4.34,9.42,1.16,18,1.16,28.15,0,6.85-5.19,13.73-12.56,13.73-11.79,0-13.55-14.83-7-17.83,5.8-2.65,10.75,3.34,10.24,10.31,8.52-12.86.23-25-8.85-34.36-8.78-9-10-18.09-4.65-23C180.59,68,174.1,75.31,179,90.25c3.49,10.62,1.13,19.08-5.62,19.08-3.51,0-7.42-4.64-7-9.45-3.5,7.51-4.19,18.46,1.16,29.2,0,0-10.7-9.45-8.15-27.49s18.95-32.09,23.35-48.74-6.29-30.28-14-33.93c7.79,13.1-3.41,22.24-17,38.53-10.68,12.84-8.92,23.32-7.29,30.19-8-7.41-7.85-18.7-5.35-25.13,0,0-10.95,7.86-9.6,20.78,1.23,11.8,8,14.82,11.69,24.06,3.44,8.56,1.07,15.88-4.42,16.79s-9.65-2.72-10.23-9.66c-.53-6.21,3.26-12.83-.24-18.9,1.33,8.75-14.63,14.6-13,29.42,1.07,9.89,9.68,17,17.12,19.87-.9-3-.38-5.73,1.63-7.11,3-2.07,8.33-.21,11.82,4.14s3.85,9.57.82,11.64c-2.85,1.94-8.27,1-11.82-2.72,2.18,15.35,16.7,27.09,31.16,31.73-3.81-13,.52-24.71,13.26-34.36-4.24,9-2.91,20.61,5.12,25.76-2.61-21.31,39-22.39,41.33-47.66C225.16,110.45,207.64,99.65,209.14,87.85Z"/><path class="cls-11" d="M107.15,115.17C97,142.42,53.45,150.54,49,170.56c2.51-4,10.2-6.36,12.83-1.8,1.91,3.3-.12,7.9-5.09,10.57-4.56,2.46-9.79,1.49-12-2-2.76-4.51-.6-10.93,3.1-15.3-7.49,2-18.71,10.88-16.63,28.57S46,220,40.62,234.89c16.52-15.64,2.42-34,23-46.11-11.15,13-15.74,40.44,1.33,62.76-3.81-13.28-3.74-21.62-1.33-30.59,0,17.47,5,22.46,7.84,39.25,3.1,18.22-.25,30-8.66,36.64,11.08-4,26.25-13.88,25.75-31.42-.3-10.48-2.46-14-4.1-22.83-1.77-9.48,1.6-12.87,5-13.35,4.53-.63,8.42,4.31,8.7,11.73.52,13.71-6.34,20.77-2.65,36.21,1.91-15.25,16.58-21.58,17.22-36.89.83-19.81-26.59-36.59-14.79-59.83-.79,11.8,2.12,19,8.19,25.19-2.8-5.65-2.3-13.47,3.32-14.17,3.32-.41,7.6,3.08,4.89,13.8-3.14,12.41-3.6,28.26,9.86,41.8-10-26.93,20-38.24,10.45-62.8,4.91,3.95,8.07,14.09,3.08,24.39,0,0,12.28-10.73,8.65-24.43-4.46-16.78-28.15-26.07-34.28-41.8a44.7,44.7,0,0,0,4.21,18C104.22,149.67,106,125.42,107.15,115.17Z"/><path class="cls-12" d="M53,87.85c-4.34,9.42,1.16,18,1.16,28.15,0,6.85-5.19,13.73-12.56,13.73-11.79,0-13.55-14.83-7-17.83,5.8-2.65,10.75,3.34,10.24,10.31,8.52-12.86.23-25-8.85-34.36-8.78-9-9.95-18.09-4.65-23C24.4,68,17.91,75.31,22.81,90.25c3.49,10.62,1.13,19.08-5.62,19.08-3.51,0-7.42-4.64-7-9.45-3.49,7.51-4.19,18.46,1.16,29.2,0,0-10.7-9.45-8.14-27.49S22.1,69.5,26.5,52.85s-6.29-30.28-14-33.93c7.78,13.1-3.42,22.24-17,38.53-10.68,12.84-8.92,23.32-7.29,30.19-8-7.41-7.85-18.7-5.35-25.13,0,0-10.95,7.86-9.6,20.78,1.23,11.8,8,14.82,11.69,24.06,3.44,8.56,1.08,15.88-4.41,16.79s-9.66-2.72-10.24-9.66c-.52-6.21,3.26-12.83-.24-18.9,1.33,8.75-14.63,14.6-13,29.42,1.07,9.89,9.68,17,17.12,19.87-.9-3-.38-5.73,1.63-7.11,3-2.07,8.33-.21,11.82,4.14s3.85,9.57.82,11.64c-2.85,1.94-8.27,1-11.82-2.72,2.18,15.35,16.7,27.09,31.16,31.73-3.81-13,.52-24.71,13.26-34.36-4.24,9-2.91,20.61,5.12,25.76-2.61-21.31,39-22.39,41.33-47.66C69,110.45,51.45,99.65,53,87.85Z"/><path class="cls-13" d="M209.14-62.27c-4.34,9.43,1.16,18,1.16,28.16,0,6.84-5.19,13.72-12.56,13.72-11.79,0-13.55-14.83-7-17.83,5.8-2.65,10.75,3.35,10.24,10.31,8.52-12.86.23-25-8.85-34.36-8.78-9-10-18.09-4.65-23-6.91,3.11-13.4,10.43-8.5,25.37,3.49,10.62,1.13,19.08-5.62,19.08-3.51,0-7.42-4.64-7-9.45-3.5,7.51-4.19,18.47,1.16,29.2,0,0-10.7-9.45-8.15-27.48s18.95-32.1,23.35-48.75-6.29-30.28-14-33.93c7.79,13.1-3.41,22.24-17,38.53-10.68,12.84-8.92,23.32-7.29,30.19-8-7.41-7.85-18.7-5.35-25.12,0,0-10.95,7.85-9.6,20.77,1.23,11.8,8,14.83,11.69,24.06,3.44,8.56,1.07,15.88-4.42,16.79s-9.65-2.71-10.23-9.66c-.53-6.21,3.26-12.83-.24-18.9,1.33,8.75-14.63,14.61-13,29.42,1.07,9.89,9.68,17,17.12,19.87-.9-3-.38-5.73,1.63-7.11,3-2.07,8.33-.21,11.82,4.15s3.85,9.57.82,11.64c-2.85,1.93-8.27,1-11.82-2.73C135,16.06,149.54,27.79,164,32.43c-3.81-13,.52-24.71,13.26-34.35-4.24,9-2.91,20.6,5.12,25.75-2.61-21.31,39-22.38,41.33-47.66C225.16-39.67,207.64-50.47,209.14-62.27Z"/><path class="cls-14" d="M107.15-34.95C97-7.7,53.45.42,49,20.44c2.51-4,10.2-6.36,12.83-1.8,1.91,3.3-.12,7.9-5.09,10.57-4.56,2.46-9.79,1.49-12-2-2.76-4.51-.6-10.93,3.1-15.3-7.49,2-18.71,10.88-16.63,28.57S46,69.86,40.62,84.78c16.52-15.65,2.42-34,23-46.12C52.48,51.64,47.89,79.1,65,101.42c-3.81-13.28-3.74-21.62-1.33-30.59,0,17.47,5,22.46,7.84,39.25,3.1,18.22-.25,30-8.66,36.64,11.08-4,26.25-13.88,25.75-31.42-.3-10.48-2.46-14-4.1-22.83-1.77-9.48,1.6-12.87,5-13.34,4.53-.64,8.42,4.3,8.7,11.72.52,13.71-6.34,20.78-2.65,36.22,1.91-15.26,16.58-21.58,17.22-36.9.83-19.8-26.59-36.59-14.79-59.83-.79,11.8,2.12,19,8.19,25.19-2.8-5.65-2.3-13.47,3.32-14.17,3.32-.41,7.6,3.08,4.89,13.8-3.14,12.41-3.6,28.26,9.86,41.8-10-26.93,20-38.24,10.45-62.8,4.91,4,8.07,14.09,3.08,24.39,0,0,12.28-10.73,8.65-24.43-4.46-16.78-28.15-26.07-34.28-41.8a44.66,44.66,0,0,0,4.21,18C104.22-.45,106-24.7,107.15-34.95Z"/><path class="cls-15" d="M53-62.27c-4.34,9.43,1.16,18,1.16,28.16,0,6.84-5.19,13.72-12.56,13.72-11.79,0-13.55-14.83-7-17.83,5.8-2.65,10.75,3.35,10.24,10.31,8.52-12.86.23-25-8.85-34.36-8.78-9-9.95-18.09-4.65-23-6.91,3.11-13.4,10.43-8.5,25.37,3.49,10.62,1.13,19.08-5.62,19.08-3.51,0-7.42-4.64-7-9.45C6.65-42.73,6-31.77,11.3-21c0,0-10.7-9.45-8.14-27.48S22.1-80.62,26.5-97.27s-6.29-30.28-14-33.93c7.78,13.1-3.42,22.24-17,38.53-10.68,12.84-8.92,23.32-7.29,30.19-8-7.41-7.85-18.7-5.35-25.12,0,0-10.95,7.85-9.6,20.77C-25.46-55-18.71-52-15-42.77c3.44,8.56,1.08,15.88-4.41,16.79s-9.66-2.71-10.24-9.66c-.52-6.21,3.26-12.83-.24-18.9,1.33,8.75-14.63,14.61-13,29.42,1.07,9.89,9.68,17,17.12,19.87-.9-3-.38-5.73,1.63-7.11,3-2.07,8.33-.21,11.82,4.15s3.85,9.57.82,11.64c-2.85,1.93-8.27,1-11.82-2.73,2.18,15.36,16.7,27.09,31.16,31.73C4,19.41,8.33,7.72,21.07-1.92c-4.24,9-2.91,20.6,5.12,25.75-2.61-21.31,39-22.38,41.33-47.66C69-39.67,51.45-50.47,53-62.27Z"/></pattern><pattern id="Coroação" data-name="Coroação" width="202.9" height="279.3" patternUnits="userSpaceOnUse" viewBox="0 0 202.9 279.3"><rect class="cls-1" width="202.9" height="279.3"/><path class="cls-8" d="M240.52,321.24a37.15,37.15,0,0,0-8.26,8.25l.71.51,10.25,5-6.54-9.35L246,332.2l-5-10.26Zm-23.06-24.77a4.26,4.26,0,0,0-6.19,5.8,4,4,0,0,0,1.33,1,6.23,6.23,0,0,1-3-2c-2-2.36-2-5.61-.09-7.26a4.34,4.34,0,0,1,3.86-.8c-4.6-5.58-2-11.18-5.56-17l6.92,9.53C216.31,289.57,213.93,292.25,217.46,296.47Zm-13.32,8.8a65.21,65.21,0,0,0,8.84.64,10.39,10.39,0,0,1,3.1-7.12c-1.68,3.16-.52,8.17,2.91,11.76Zm-2.62-.67a2.14,2.14,0,0,1,.27,2L222,314.4c-2.85-3.11-2.65-7.5-.2-9.69-.9,2.63,1.35,4.86,3.32,3.42,1.16-.84,1.15-3-.18-4.83-2.37-3.27-6.85-1.92-6.63,2.11-2.93-4.61,0-8.21,3.43-7.66-4.48-1.77-3-5.55-4.53-8.54l13.81,19,.08,6.5a.93.93,0,0,1-.32.74,47.69,47.69,0,0,0-7.13,7.81L198,304.6A2.17,2.17,0,0,1,201.52,304.6Zm32.14,12.21,4.41,1.05,1,1.36a39.75,39.75,0,0,0-8.81,8.8l-4.53-3.29a45.25,45.25,0,0,1,7.1-7.71A1,1,0,0,1,233.66,316.81Z"/><path class="cls-8" d="M59.54,314.11A37,37,0,0,0,48,315.94l.27.83,5.36,10.07.2-11.41,3.71,10.79,2-11.24Zm-4.1-33.59A4.25,4.25,0,0,0,47,281.58a4,4,0,0,0,.47,1.61,6.25,6.25,0,0,1-1.25-3.39c-.23-3.08,1.65-5.73,4.2-5.92A4.34,4.34,0,0,1,54,275.49c-.44-7.21,5-10.2,5.5-17v11.78C58.56,274.27,55.07,275,55.44,280.52Zm-15.94-.7a64.54,64.54,0,0,0,6.77,5.71A10.34,10.34,0,0,1,53,281.59c-3.22,1.57-5.22,6.3-4.56,11.22Zm-1.73-2.09a2.16,2.16,0,0,1-1,1.82l11.83,18.17c-.48-4.19,2.26-7.63,5.53-8-2.27,1.6-1.76,4.73.68,4.73,1.43,0,2.69-1.76,2.69-4,0-4-4.41-5.58-6.61-2.19.35-5.45,4.82-6.65,7.29-4.18-2.59-4.07.8-6.27,1.35-9.58V298l-3.75,5.31a.94.94,0,0,1-.7.4,47.78,47.78,0,0,0-10.35,2.13l-9.82-30.2A2.18,2.18,0,0,1,37.77,277.73ZM56.6,306.51l2.94,3.43v1.68a39.64,39.64,0,0,0-12.3,1.94l-1.73-5.33a45.74,45.74,0,0,1,10.27-2.06A1,1,0,0,1,56.6,306.51Z"/><path class="cls-9" d="M38.12,321.94l8.21,7.92L43,319l6.87,9.11-1.59-11.29-.27-.83a37.2,37.2,0,0,0-10.4,5.3ZM11.83,285.75l-6.92-9.53c4.43,5.21,10.57,4.45,14.45,10.54a4.35,4.35,0,0,1,2-3.42c2.17-1.34,5.25-.3,6.88,2.33a6.31,6.31,0,0,1,1,3.47,4.07,4.07,0,0,0-.57-1.58,4.26,4.26,0,0,0-7.43,4.09C18.26,287,15,288.43,11.83,285.75Zm22.28,11.71c-2.37-4.37-6.76-7-10.29-6.4a10.29,10.29,0,0,1,7.72-.75,64.61,64.61,0,0,0,2.13-8.6Zm.81-21.8,9.82,30.2a48.27,48.27,0,0,0-9.63,4.36,1,1,0,0,1-.81.09l-6.15-2.1-13.81-19c2.39,2.35,6.43,2.14,6.72,7,.55-3.44,4.87-5.1,8.35-.9-3.76-1.46-6.43,2.39-4.06,5.66,1.33,1.82,3.39,2.51,4.55,1.66,2-1.43.55-4.26-2.23-4.21,2.83-1.66,7.08-.49,9.15,3.18L35.71,279.9a2.15,2.15,0,0,1-1.87-.89A2.18,2.18,0,0,1,34.92,275.66ZM36,312.61a45.13,45.13,0,0,1,9.52-4.38l1.73,5.33a39.86,39.86,0,0,0-11.09,5.66l-1-1.36.37-4.51A.94.94,0,0,1,36,312.61Z"/><path class="cls-8" d="M37.61,321.24a37.1,37.1,0,0,0-8.25,8.25l.71.51,10.25,5-6.54-9.35,9.34,6.55-5-10.26ZM14.55,296.47a4.25,4.25,0,0,0-6.18,5.8,4,4,0,0,0,1.32,1,6.25,6.25,0,0,1-3-2c-2-2.36-2-5.61-.09-7.26a4.31,4.31,0,0,1,3.85-.8c-4.59-5.58-2-11.18-5.55-17l6.92,9.53C13.4,289.57,11,292.25,14.55,296.47Zm-13.31,8.8a65.09,65.09,0,0,0,8.84.64,10.3,10.3,0,0,1,3.1-7.12c-1.68,3.16-.52,8.17,2.9,11.76Zm-2.62-.67a2.17,2.17,0,0,1,.27,2l20.25,7.75c-2.85-3.11-2.66-7.5-.2-9.69-.9,2.63,1.35,4.86,3.32,3.42,1.16-.84,1.14-3-.18-4.83-2.37-3.27-6.86-1.92-6.64,2.11-2.92-4.61,0-8.21,3.44-7.66-4.48-1.77-3-5.55-4.54-8.54l13.81,19,.09,6.5a.94.94,0,0,1-.33.74,47.62,47.62,0,0,0-7.12,7.81L-4.9,304.6A2.17,2.17,0,0,1-1.38,304.6Zm32.14,12.21,4.4,1.05,1,1.36a39.54,39.54,0,0,0-8.81,8.8l-4.54-3.29A45.32,45.32,0,0,1,29.91,317,1,1,0,0,1,30.76,316.81Z"/><path class="cls-9" d="M59.54,315l2,11.24,3.72-10.79.2,11.41,5.35-10.07.27-.83a36.91,36.91,0,0,0-11.52-1.83Zm0-44.73V258.47c.53,6.82,5.94,9.81,5.5,17a4.32,4.32,0,0,1,3.58-1.61c2.56.19,4.44,2.84,4.21,5.92a6.41,6.41,0,0,1-1.25,3.39,4,4,0,0,0,.47-1.61,4.26,4.26,0,0,0-8.42-1.06C64,275,60.51,274.27,59.54,270.25Zm11.14,22.56c.65-4.92-1.35-9.65-4.56-11.22a10.3,10.3,0,0,1,6.68,3.94,65.91,65.91,0,0,0,6.78-5.71Zm13.47-17.15-9.81,30.2A47.91,47.91,0,0,0,64,303.73a1,1,0,0,1-.7-.4L59.54,298v-23.5c.54,3.31,3.93,5.51,1.35,9.58,2.46-2.47,6.94-1.27,7.28,4.18-2.19-3.39-6.61-1.85-6.61,2.19,0,2.26,1.27,4,2.7,4,2.44,0,2.95-3.13.67-4.73,3.27.33,6,3.77,5.53,8l11.83-18.17a2.17,2.17,0,0,1,1.86-3.89ZM63.29,306.17a45.94,45.94,0,0,1,10.28,2.06l-1.73,5.33a39.74,39.74,0,0,0-12.3-1.94v-1.68l2.94-3.43A1,1,0,0,1,63.29,306.17Z"/><path class="cls-8" d="M81.46,321.24a36.93,36.93,0,0,0-10.4-5.3l-.27.83-1.58,11.29L76.08,319l-3.34,10.91L81,321.94Zm16.43-29.59a4.26,4.26,0,0,0-7.43-4.09,4.05,4.05,0,0,0-.56,1.58,6.38,6.38,0,0,1,1-3.47c1.63-2.63,4.71-3.67,6.89-2.33a4.31,4.31,0,0,1,1.95,3.42c3.89-6.09,10-5.33,14.46-10.54l-6.93,9.53C104.09,288.43,100.81,287,97.89,291.65Zm-12.48-9.94a63,63,0,0,0,2.12,8.6,10.32,10.32,0,0,1,7.73.75c-3.53-.62-7.93,2-10.29,6.4Zm-.17-2.7a2.15,2.15,0,0,1-1.87.89l-1.12,21.65c2.08-3.67,6.32-4.84,9.16-3.18-2.78-.05-4.21,2.78-2.23,4.21,1.16.85,3.21.16,4.54-1.66,2.37-3.27-.29-7.12-4.06-5.66,3.48-4.2,7.81-2.54,8.35.9.3-4.81,4.34-4.6,6.72-7l-13.81,19-6.15,2.1a1,1,0,0,1-.81-.09,48.45,48.45,0,0,0-9.62-4.36l9.81-30.2A2.18,2.18,0,0,1,85.24,279Zm-1.69,34.34.36,4.51-1,1.36a40,40,0,0,0-11.09-5.66l1.73-5.33a45.36,45.36,0,0,1,9.52,4.38A1,1,0,0,1,83.55,313.35Z"/><path class="cls-9" d="M81,321.94,76,332.2l9.35-6.55L78.76,335,89,330l.7-.51a37.1,37.1,0,0,0-8.25-8.25Zm26.29-36.19,6.93-9.53c-3.58,5.83-1,11.43-5.56,17a4.31,4.31,0,0,1,3.85.8c2,1.65,1.92,4.9-.08,7.26a6.28,6.28,0,0,1-3,2,3.82,3.82,0,0,0,1.32-1,4.25,4.25,0,0,0-6.18-5.8C108.05,292.25,105.67,289.57,107.24,285.75ZM103,310.55c3.43-3.59,4.59-8.6,2.91-11.76a10.34,10.34,0,0,1,3.09,7.12,65,65,0,0,0,8.84-.64Zm21-5.95L98.29,323.26a48.14,48.14,0,0,0-7.13-7.81,1,1,0,0,1-.33-.74l.09-6.5,13.81-19c-1.5,3-.06,6.77-4.53,8.54,3.44-.55,6.35,3.05,3.43,7.66.22-4-4.26-5.38-6.63-2.11-1.33,1.82-1.34,4-.18,4.83,2,1.44,4.22-.79,3.32-3.42,2.45,2.19,2.65,6.58-.2,9.69l20.25-7.75a2.17,2.17,0,0,1,3.78-2ZM89.17,317a45.67,45.67,0,0,1,7.1,7.71L91.74,328a39.75,39.75,0,0,0-8.81-8.8l1-1.36,4.4-1.05A1,1,0,0,1,89.17,317Z"/><path class="cls-8" d="M240.52,41.93a37.19,37.19,0,0,0-8.26,8.26l.71.51,10.25,5-6.54-9.35L246,52.89l-5-10.25ZM217.46,17.16A4.26,4.26,0,0,0,211.27,23a4.08,4.08,0,0,0,1.33,1,6.23,6.23,0,0,1-3-2c-2-2.36-2-5.61-.09-7.27a4.37,4.37,0,0,1,3.86-.8c-4.6-5.57-2-11.17-5.56-17l6.92,9.53C216.31,10.27,213.93,13,217.46,17.16ZM204.14,26a65.21,65.21,0,0,0,8.84.64,10.37,10.37,0,0,1,3.1-7.12c-1.68,3.16-.52,8.16,2.91,11.76Zm-2.62-.68a2.16,2.16,0,0,1,.27,2.06L222,35.1c-2.85-3.11-2.65-7.51-.2-9.69-.9,2.63,1.35,4.85,3.32,3.42,1.16-.84,1.15-3-.18-4.84-2.37-3.26-6.85-1.91-6.63,2.12-2.93-4.61,0-8.21,3.43-7.67-4.48-1.76-3-5.54-4.53-8.54l13.81,19,.08,6.5a1,1,0,0,1-.32.74A47.28,47.28,0,0,0,223.69,44L198,25.29A2.18,2.18,0,0,1,201.52,25.29Zm32.14,12.22,4.41,1.05,1,1.36a39.75,39.75,0,0,0-8.81,8.8l-4.53-3.3a45.57,45.57,0,0,1,7.1-7.7A1,1,0,0,1,233.66,37.51Z"/><path class="cls-9" d="M227.79,60.85l11.3,1.59L230,55.57l10.91,3.33L233,50.7l-.71-.51A37.16,37.16,0,0,0,227,60.58ZM185.25,47l-11.2-3.64c6.65,1.61,11.16-2.62,17.89,0a4.3,4.3,0,0,1-.43-3.91c1-2.37,4.07-3.34,6.93-2.17a6.28,6.28,0,0,1,2.83,2.24,3.87,3.87,0,0,0-1.38-.95,4.26,4.26,0,0,0-3.61,7.68C191.18,44.26,189.37,47.34,185.25,47Zm24.9-3.62c-4.48-2.15-9.59-1.71-12.08.87a10.29,10.29,0,0,1,5.81-5.14,64,64,0,0,0-3.34-8.21ZM198,25.29,223.69,44a47.51,47.51,0,0,0-5.22,9.19,1,1,0,0,1-.6.54l-6.21,1.92-22.35-7.26c3.32.5,6.46-2,9.53,1.68-1.58-3.11.94-7,6.23-5.64-3.91,1-3.8,5.72,0,7,2.15.7,4.22,0,4.66-1.32.75-2.32-2.06-3.77-4.28-2.1,1.32-3,5.44-4.56,9.28-2.8L201.13,28.26a2.15,2.15,0,0,1-2,.38A2.18,2.18,0,0,1,198,25.29Zm22.58,29.27a44.79,44.79,0,0,1,5.13-9.14l4.53,3.3a39.86,39.86,0,0,0-5.65,11.09L223,59.29l-2.36-3.85A1,1,0,0,1,220.58,54.56Z"/><path class="cls-8" d="M227,60.58a37.07,37.07,0,0,0-1.83,11.53H226l11.24-2-10.79-3.72,11.41-.2-10.08-5.36ZM193.75,54.1a4.25,4.25,0,0,0-1.59,8.33,3.94,3.94,0,0,0,1.67,0,6.33,6.33,0,0,1-3.6.14c-3-.73-4.95-3.34-4.34-5.83a4.34,4.34,0,0,1,2.65-2.91c-7-1.81-8.17-7.88-14.49-10.49L185.25,47C188.77,49.2,188.42,52.76,193.75,54.1Zm-5.59,14.95a68,68,0,0,0,7.52-4.68A10.35,10.35,0,0,1,194,56.79c.5,3.55,4.38,6.91,9.27,7.81Zm-2.52,1a2.19,2.19,0,0,1,1.43,1.51L208,65.91c-4.13-.84-6.56-4.51-5.86-7.72.82,2.66,4,3.14,4.7.82.44-1.36-.84-3.11-3-3.81-3.83-1.24-6.67,2.48-4.12,5.61-5.08-2-4.83-6.64-1.73-8.22-4.66,1.2-5.71-2.7-8.69-4.24l22.35,7.26,3.89,5.2a1,1,0,0,1,.17.8,47.68,47.68,0,0,0-1.18,10.5H182.79A2.18,2.18,0,0,1,185.64,70Zm33.19-9L223,59.29l1.59.52a40,40,0,0,0-2,12.3H217a45.35,45.35,0,0,1,1.21-10.41A1,1,0,0,1,218.83,61Z"/><path class="cls-9" d="M241,101.58l5-10.25-9.35,6.54,6.54-9.35-10.25,5-.71.52a37.36,37.36,0,0,0,8.26,8.25Zm-26.3,36.19-6.92,9.53c3.58-5.83,1-11.43,5.56-17a4.34,4.34,0,0,1-3.86-.8c-1.95-1.66-1.91-4.91.09-7.27a6.23,6.23,0,0,1,3-2,4.08,4.08,0,0,0-1.33,1,4.26,4.26,0,0,0,6.19,5.81C213.93,131.27,216.31,134,214.73,137.77ZM219,113c-3.43,3.6-4.59,8.6-2.91,11.76a10.35,10.35,0,0,1-3.1-7.12,65.21,65.21,0,0,0-8.84.64Zm-21,6,25.69-18.67a47.28,47.28,0,0,0,7.13,7.81,1,1,0,0,1,.32.74l-.08,6.5-13.81,19c1.5-3,.05-6.78,4.53-8.54-3.44.54-6.36-3.06-3.43-7.67-.22,4,4.26,5.38,6.63,2.12,1.33-1.83,1.34-4,.18-4.84-2-1.43-4.22.8-3.32,3.42-2.45-2.18-2.65-6.58.2-9.69l-20.25,7.75a2.18,2.18,0,0,1-3.79,2.06Zm34.81-12.43a45.57,45.57,0,0,1-7.1-7.7l4.53-3.3a39.75,39.75,0,0,0,8.81,8.8l-1,1.36-4.41,1A1,1,0,0,1,232.81,106.5Z"/><path class="cls-8" d="M227,83.64A37.35,37.35,0,0,0,232.26,94l.71-.52,7.92-8.2L230,88.65l9.11-6.87-11.3,1.59ZM196.28,97.91a4.26,4.26,0,0,0,3.61,7.68,4,4,0,0,0,1.38-.94,6.33,6.33,0,0,1-2.83,2.23c-2.86,1.17-6,.2-6.93-2.17a4.3,4.3,0,0,1,.43-3.91c-6.73,2.65-11.24-1.57-17.89,0l11.2-3.64C189.37,96.88,191.18,100,196.28,97.91Zm4.26,15.38a63.88,63.88,0,0,0,3.34-8.2,10.35,10.35,0,0,1-5.81-5.15c2.49,2.58,7.6,3,12.08.87Zm-1.45,2.29a2.15,2.15,0,0,1,2,.38l13.63-16.87c-3.84,1.76-8,.21-9.28-2.8,2.22,1.67,5,.22,4.28-2.1-.44-1.36-2.51-2-4.66-1.32-3.83,1.24-3.94,5.93,0,7-5.29,1.36-7.81-2.53-6.23-5.64-3.07,3.72-6.21,1.18-9.53,1.68l22.35-7.26,6.21,1.92a1,1,0,0,1,.6.55,47.73,47.73,0,0,0,5.22,9.18L198,118.93A2.18,2.18,0,0,1,199.09,115.58Zm21.55-26.79L223,84.93l1.59-.52a40.06,40.06,0,0,0,5.65,11.1l-4.53,3.29a44.53,44.53,0,0,1-5.13-9.14A1,1,0,0,1,220.64,88.79Z"/><path class="cls-9" d="M227.79,83.37,237.87,78l-11.41-.2,10.79-3.72-11.24-2h-.87A37.07,37.07,0,0,0,227,83.64ZM185.25,97.19l-11.2,3.64c6.32-2.61,7.49-8.68,14.49-10.49a4.34,4.34,0,0,1-2.65-2.91c-.61-2.49,1.34-5.1,4.34-5.83a6.33,6.33,0,0,1,3.6.14,3.94,3.94,0,0,0-1.67.05,4.25,4.25,0,0,0,1.59,8.33C188.42,91.46,188.77,95,185.25,97.19Zm18-17.56c-4.89.89-8.77,4.26-9.27,7.8a10.35,10.35,0,0,1,1.68-7.58,66.4,66.4,0,0,0-7.52-4.67Zm-20.48-7.52h31.75a47.68,47.68,0,0,0,1.18,10.5,1,1,0,0,1-.17.8l-3.89,5.2-22.35,7.26c3-1.54,4-5.44,8.69-4.24-3.1-1.58-3.35-6.21,1.73-8.22-2.55,3.13.29,6.86,4.12,5.61,2.15-.7,3.43-2.45,3-3.81-.75-2.32-3.88-1.84-4.7.82-.7-3.21,1.73-6.88,5.86-7.72l-20.93-5.63a2.18,2.18,0,0,1-4.28-.57Zm35.46,10.41A45.29,45.29,0,0,1,217,72.11h5.6a40,40,0,0,0,2,12.3l-1.59.52-4.17-1.74A1,1,0,0,1,218.25,82.52Z"/><path class="cls-9" d="M149.46,176.27a37.21,37.21,0,0,0-10.4,5.29l.51.71,8.21,7.92-3.33-10.91,6.86,9.11-1.58-11.3Zm-14.28-30.69a4.25,4.25,0,0,0-7.67,3.61,3.94,3.94,0,0,0,.94,1.38,6.28,6.28,0,0,1-2.24-2.83c-1.17-2.86-.2-6,2.17-6.93a4.3,4.3,0,0,1,3.91.43c-2.64-6.73,1.58-11.24,0-17.89l3.64,11.2C136.22,138.67,133.13,140.48,135.18,145.58Zm-15.38,4.26a64,64,0,0,0,8.21,3.34,10.33,10.33,0,0,1,5.14-5.81c-2.57,2.49-3,7.6-.86,12.08Zm-2.28-1.45a2.21,2.21,0,0,1-.38,2L134,164.06c-1.75-3.84-.21-8,2.8-9.28-1.67,2.22-.22,5,2.1,4.28,1.37-.44,2-2.51,1.33-4.66-1.25-3.83-5.93-3.94-7,0-1.35-5.29,2.53-7.81,5.64-6.23-3.71-3.07-1.17-6.21-1.68-9.53L144.48,161l-1.92,6.21a1,1,0,0,1-.54.6,47.81,47.81,0,0,0-9.19,5.22L114.17,147.3A2.18,2.18,0,0,1,117.52,148.39Zm26.79,21.55,3.86,2.36.52,1.59a39.92,39.92,0,0,0-11.1,5.65L134.3,175a44.45,44.45,0,0,1,9.13-5.13A1,1,0,0,1,144.31,169.94Z"/><path class="cls-8" d="M131.51,190.33l10.26,5L135.22,186l9.35,6.54-5-10.25-.51-.71a37.15,37.15,0,0,0-8.25,8.26ZM95.32,164l-9.53-6.92c5.83,3.58,11.43,1,17,5.55a4.31,4.31,0,0,1,.8-3.85c1.65-1.95,4.9-1.91,7.26.09a6.32,6.32,0,0,1,2,3,4,4,0,0,0-1-1.33,4.26,4.26,0,0,0-5.8,6.19C101.82,163.23,99.14,165.6,95.32,164Zm24.8,4.26c-3.59-3.43-8.59-4.59-11.76-2.91a10.39,10.39,0,0,1,7.12-3.1,65.21,65.21,0,0,0-.64-8.84Zm-6-21L132.83,173a48.1,48.1,0,0,0-7.81,7.13.92.92,0,0,1-.73.32l-6.5-.09-19-13.81c3,1.51,6.77.06,8.54,4.54-.55-3.44,3.05-6.36,7.66-3.43-4-.23-5.37,4.26-2.11,6.63,1.83,1.33,4,1.34,4.83.18,1.44-2-.79-4.22-3.42-3.32,2.19-2.45,6.58-2.65,9.69.2l-7.75-20.25a2.14,2.14,0,0,1-2-.27A2.17,2.17,0,0,1,114.17,147.3Zm12.42,34.81a45.25,45.25,0,0,1,7.71-7.1l3.29,4.53a39.75,39.75,0,0,0-8.8,8.81l-1.36-1-1-4.4A.94.94,0,0,1,126.59,182.11Z"/><path class="cls-9" d="M130.81,189.82a37.28,37.28,0,0,0-5.3,10.39l.83.27,11.29,1.59-9.11-6.87,10.92,3.34-7.93-8.21Zm-29.59-16.44a4.26,4.26,0,0,0-4.09,7.43,4,4,0,0,0,1.58.57,6.31,6.31,0,0,1-3.47-1c-2.63-1.62-3.67-4.71-2.32-6.88a4.28,4.28,0,0,1,3.41-2c-6.09-3.89-5.33-10-10.54-14.46L95.32,164C98,167.18,96.56,170.46,101.22,173.38Zm-9.94,12.49a66.67,66.67,0,0,0,8.61-2.12,10.31,10.31,0,0,1,.74-7.73c-.62,3.53,2,7.93,6.4,10.29Zm-2.7.17a2.15,2.15,0,0,1,.89,1.87L111.12,189c-3.67-2.07-4.84-6.31-3.18-9.15,0,2.78,2.78,4.2,4.22,2.23.84-1.16.16-3.22-1.67-4.55-3.26-2.37-7.11.3-5.66,4.07-4.2-3.48-2.54-7.81.9-8.35-4.8-.3-4.6-4.34-7-6.73l19,13.81,2.09,6.16a.94.94,0,0,1-.09.8,48.27,48.27,0,0,0-4.36,9.63l-30.2-9.81A2.18,2.18,0,0,1,88.58,186Zm34.35,1.69,4.5-.37,1.36,1a39.86,39.86,0,0,0-5.66,11.09l-5.33-1.73a45.13,45.13,0,0,1,4.38-9.52A.94.94,0,0,1,122.93,187.73Z"/><path class="cls-8" d="M124.55,211.74l11.24-2L125,206l11.41-.2-10.07-5.36-.83-.27a37,37,0,0,0-1.82,11.53Zm-44.73,0H68c6.82-.53,9.81-5.94,17-5.5a4.34,4.34,0,0,1-1.61-3.59c.19-2.55,2.84-4.43,5.92-4.2a6.41,6.41,0,0,1,3.39,1.25,4,4,0,0,0-1.61-.47,4.26,4.26,0,0,0-1.06,8.42C84.61,207.27,83.84,210.76,79.82,211.74Zm22.57-11.14c-4.93-.66-9.66,1.35-11.23,4.56a10.34,10.34,0,0,1,3.94-6.69,65.58,65.58,0,0,0-5.71-6.77ZM85.23,187.13l30.2,9.81a47.91,47.91,0,0,0-2.13,10.35.94.94,0,0,1-.4.7l-5.31,3.75H84.09c3.31-.54,5.52-3.93,9.58-1.35-2.47-2.46-1.27-6.94,4.18-7.28-3.39,2.19-1.84,6.61,2.19,6.61,2.26,0,4-1.27,4-2.7,0-2.44-3.13-3-4.72-.68.32-3.27,3.76-6,8-5.53L89.12,189a2.17,2.17,0,0,1-3.89-1.86ZM115.75,208a45.4,45.4,0,0,1,2-10.27l5.33,1.73a39.69,39.69,0,0,0-1.94,12.3h-1.68l-3.43-2.94A1,1,0,0,1,115.75,208Z"/><path class="cls-9" d="M123.69,211.74a37,37,0,0,0,1.82,11.53l.83-.27,10.07-5.36-11.41-.2,10.79-3.72-11.24-2Zm-33.6,4.1a4.25,4.25,0,0,0,1.06,8.41,4,4,0,0,0,1.61-.47A6.41,6.41,0,0,1,89.37,225c-3.08.23-5.73-1.65-5.92-4.2a4.34,4.34,0,0,1,1.61-3.59c-7.21.44-10.2-5-17-5.5H79.82C83.84,212.72,84.61,216.21,90.09,215.84Zm-.7,15.94A65.58,65.58,0,0,0,95.1,225a10.34,10.34,0,0,1-3.94-6.69c1.57,3.22,6.3,5.22,11.23,4.56ZM87.3,233.5a2.18,2.18,0,0,1,1.82,1l18.17-11.83c-4.19.48-7.63-2.26-8-5.53,1.59,2.27,4.72,1.76,4.72-.68,0-1.43-1.76-2.7-4-2.7-4,0-5.58,4.42-2.19,6.61-5.45-.34-6.65-4.82-4.18-7.28-4.06,2.58-6.27-.8-9.58-1.35h23.5l5.31,3.75a.94.94,0,0,1,.4.7,47.91,47.91,0,0,0,2.13,10.35l-30.2,9.81A2.18,2.18,0,0,1,87.3,233.5Zm28.78-18.82,3.43-2.94h1.68a39.69,39.69,0,0,0,1.94,12.3l-5.33,1.73a45.4,45.4,0,0,1-2-10.27A1,1,0,0,1,116.08,214.68Z"/><path class="cls-8" d="M172.24,246.39l-5.36-10.08-.2,11.41L163,236.93l-2,11.24V249a37,37,0,0,0,11.53-1.83Zm13.83,42.54,3.63,11.2c-2.6-6.32-8.67-7.49-10.49-14.48a4.33,4.33,0,0,1-2.91,2.64c-2.48.61-5.09-1.33-5.83-4.34a6.33,6.33,0,0,1,.15-3.6,3.93,3.93,0,0,0,0,1.67,4.25,4.25,0,0,0,8.33-1.59C180.33,285.76,183.9,285.41,186.07,288.93Zm-17.57-18c.89,4.89,4.26,8.77,7.8,9.27a10.33,10.33,0,0,1-7.57-1.68,64.37,64.37,0,0,0-4.68,7.53ZM161,291.39V259.64a47.84,47.84,0,0,0,10.51-1.18,1,1,0,0,1,.79.17l5.21,3.89,7.26,22.35c-1.55-3-5.45-4-4.25-8.69-1.58,3.1-6.21,3.35-8.22-1.73,3.14,2.55,6.86-.29,5.61-4.12-.69-2.15-2.44-3.43-3.8-3-2.32.75-1.84,3.88.81,4.7-3.21.7-6.88-1.73-7.72-5.86l-5.63,20.93a2.18,2.18,0,0,1-.57,4.28Zm10.41-35.46A45.22,45.22,0,0,1,161,257.14v-5.6a39.89,39.89,0,0,0,12.3-1.95l.52,1.59-1.74,4.18A1,1,0,0,1,171.39,255.93Z"/><path class="cls-9" d="M149.46,247.21A37,37,0,0,0,161,249v-.87l-2-11.24-3.71,10.79-.2-11.41-5.36,10.08ZM143,280.43A4.25,4.25,0,0,0,151.3,282a3.93,3.93,0,0,0,0-1.67,6.33,6.33,0,0,1,.15,3.6c-.74,3-3.35,4.95-5.83,4.34a4.32,4.32,0,0,1-2.91-2.65c-1.82,7-7.89,8.17-10.5,14.49l3.64-11.2C138.07,285.41,141.63,285.76,143,280.43Zm14.95,5.6a64.37,64.37,0,0,0-4.68-7.53,10.34,10.34,0,0,1-7.58,1.68c3.55-.5,6.91-4.38,7.81-9.27Zm1,2.51a2.14,2.14,0,0,1,1.5-1.42l-5.63-20.94c-.84,4.13-4.51,6.56-7.72,5.86,2.65-.82,3.13-4,.81-4.7-1.36-.44-3.11.84-3.8,3-1.25,3.83,2.47,6.67,5.61,4.12-2,5.08-6.64,4.83-8.22,1.73,1.2,4.66-2.7,5.71-4.25,8.69l7.26-22.35,5.21-3.89a1,1,0,0,1,.79-.17,47.82,47.82,0,0,0,10.5,1.18v31.75A2.17,2.17,0,0,1,158.92,288.54Zm-9-33.18-1.74-4.18.52-1.59A39.88,39.88,0,0,0,161,251.54v5.6a45.22,45.22,0,0,1-10.41-1.21A1,1,0,0,1,149.91,255.36Z"/><path class="cls-8" d="M149.73,246.39l1.58-11.3-6.86,9.11,3.33-10.91-8.21,7.92-.51.71a37.21,37.21,0,0,0,10.4,5.29ZM135.9,288.93l-3.64,11.2c1.61-6.65-2.61-11.16,0-17.88a4.33,4.33,0,0,1-3.91.42c-2.37-1-3.34-4.07-2.16-6.93a6.25,6.25,0,0,1,2.23-2.83,3.94,3.94,0,0,0-.94,1.38,4.25,4.25,0,0,0,7.67,3.61C133.13,283,136.22,284.81,135.9,288.93ZM132.29,264c-2.15,4.48-1.71,9.59.86,12.08A10.33,10.33,0,0,1,128,270.3a65.5,65.5,0,0,0-8.21,3.34Zm-18.12,12.15,18.66-25.69a47.81,47.81,0,0,0,9.19,5.22,1,1,0,0,1,.54.61l1.92,6.2-7.26,22.35c.51-3.32-2-6.46,1.68-9.53-3.11,1.59-7-.94-5.64-6.22,1,3.9,5.72,3.79,7,0,.7-2.15,0-4.21-1.33-4.66-2.32-.75-3.77,2.06-2.1,4.28-3-1.32-4.55-5.44-2.8-9.28l-16.86,13.63a2.2,2.2,0,0,1,.38,2A2.18,2.18,0,0,1,114.17,276.18Zm29.26-22.58a44.45,44.45,0,0,1-9.13-5.13l3.29-4.53a39.92,39.92,0,0,0,11.1,5.65l-.52,1.59-3.86,2.36A1,1,0,0,1,143.43,253.6Z"/><path class="cls-9" d="M130.81,233.66a37.15,37.15,0,0,0,8.25,8.26l.51-.71,5-10.25-9.35,6.54,6.55-9.35-10.26,5ZM106,256.72a4.26,4.26,0,0,0,5.8,6.19,4,4,0,0,0,1-1.33,6.32,6.32,0,0,1-2,3c-2.36,2-5.61,2-7.26.09a4.31,4.31,0,0,1-.8-3.85c-5.58,4.59-11.18,2-17,5.55l9.53-6.92C99.14,257.88,101.82,260.25,106,256.72Zm8.8,13.32a65.21,65.21,0,0,0,.64-8.84,10.39,10.39,0,0,1-7.12-3.1c3.17,1.68,8.17.52,11.76-2.91Zm-.67,2.62a2.14,2.14,0,0,1,2-.27L124,252.14c-3.11,2.85-7.5,2.65-9.69.2,2.63.9,4.86-1.35,3.42-3.32-.84-1.16-3-1.15-4.83.18-3.26,2.37-1.92,6.86,2.11,6.63-4.61,2.93-8.21,0-7.66-3.43-1.77,4.48-5.54,3-8.54,4.54l19-13.81,6.49-.09a.91.91,0,0,1,.74.33,47.62,47.62,0,0,0,7.81,7.12l-18.66,25.69A2.17,2.17,0,0,1,114.17,272.66Zm12.21-32.14,1.05-4.4,1.36-1a39.54,39.54,0,0,0,8.8,8.81l-3.29,4.53a44.85,44.85,0,0,1-7.71-7.1A1,1,0,0,1,126.38,240.52Z"/><path class="cls-8" d="M131.51,233.15l7.93-8.2-10.92,3.33,9.11-6.87L126.34,223l-.83.27a37.28,37.28,0,0,0,5.3,10.39Zm-36.19,26.3-9.53,6.92c5.21-4.44,4.45-10.57,10.54-14.46A4.28,4.28,0,0,1,92.92,250c-1.35-2.17-.31-5.25,2.32-6.88a6.31,6.31,0,0,1,3.47-1,4.13,4.13,0,0,0-1.58.57,4.26,4.26,0,0,0,4.09,7.43C96.56,253,98,256.3,95.32,259.45ZM107,237.17c-4.37,2.36-7,6.76-6.4,10.29a10.31,10.31,0,0,1-.74-7.73,66.67,66.67,0,0,0-8.61-2.12Zm-21.8-.82,30.2-9.81a48.27,48.27,0,0,0,4.36,9.63.94.94,0,0,1,.09.8l-2.09,6.16-19,13.81c2.35-2.39,2.15-6.43,7-6.72-3.44-.55-5.1-4.87-.9-8.36-1.46,3.77,2.4,6.44,5.66,4.07,1.83-1.33,2.51-3.39,1.67-4.55-1.44-2-4.27-.55-4.22,2.23-1.66-2.84-.49-7.08,3.18-9.15l-21.65,1.11a2.15,2.15,0,0,1-.89,1.87A2.18,2.18,0,0,1,85.23,236.35Zm37-1.06a45.13,45.13,0,0,1-4.38-9.52l5.33-1.73a39.86,39.86,0,0,0,5.66,11.09l-1.36,1-4.5-.37A.94.94,0,0,1,122.18,235.29Z"/><path class="cls-9" d="M172.51,247.21a37.21,37.21,0,0,0,10.4-5.29l-.51-.71-8.21-7.92,3.34,10.91-6.87-9.11,1.58,11.3Zm14.28,30.69a4.25,4.25,0,0,0,7.67-3.61,3.94,3.94,0,0,0-.94-1.38,6.25,6.25,0,0,1,2.23,2.83c1.17,2.86.2,6-2.16,6.93a4.33,4.33,0,0,1-3.91-.42c2.64,6.72-1.58,11.23,0,17.88l-3.63-11.2C185.75,284.81,188.84,283,186.79,277.9Zm15.38-4.26A65.5,65.5,0,0,0,194,270.3a10.31,10.31,0,0,1-5.15,5.81c2.58-2.49,3-7.6.88-12.08Zm2.28,1.45a2.18,2.18,0,0,1,.38-2L188,259.42c1.75,3.84.21,8-2.8,9.28,1.67-2.22.21-5-2.1-4.28-1.37.44-2,2.51-1.33,4.66,1.25,3.83,5.93,3.94,7,0,1.36,5.29-2.53,7.82-5.63,6.23,3.71,3.07,1.17,6.21,1.68,9.53l-7.26-22.35,1.92-6.2a1,1,0,0,1,.54-.61,48.11,48.11,0,0,0,9.19-5.22l18.66,25.69A2.18,2.18,0,0,1,204.45,275.09Zm-26.79-21.55-3.86-2.36-.52-1.59a39.92,39.92,0,0,0,11.1-5.65l3.29,4.53a44.72,44.72,0,0,1-9.13,5.13A1,1,0,0,1,177.66,253.54Z"/><path class="cls-8" d="M190.46,233.15l-10.26-5,6.54,9.35L177.4,231l5,10.25.51.71a37.15,37.15,0,0,0,8.25-8.26Zm36.19,26.3,9.53,6.92c-5.83-3.58-11.43-1-17-5.55a4.31,4.31,0,0,1-.8,3.85c-1.65,1.95-4.91,1.91-7.26-.09a6.32,6.32,0,0,1-2-3,4,4,0,0,0,1,1.33,4.26,4.26,0,0,0,5.8-6.19C220.15,260.25,222.82,257.88,226.65,259.45Zm-24.8-4.26c3.59,3.43,8.59,4.59,11.76,2.91a10.39,10.39,0,0,1-7.12,3.1,65.21,65.21,0,0,0,.64,8.84Zm6,21-18.66-25.69a48,48,0,0,0,7.81-7.12.91.91,0,0,1,.74-.33l6.49.09,19,13.81c-3-1.51-6.77-.06-8.54-4.54.55,3.44-3.05,6.36-7.67,3.43,4,.23,5.39-4.26,2.12-6.63-1.82-1.33-4-1.34-4.84-.18-1.43,2,.8,4.22,3.43,3.32-2.19,2.46-6.58,2.65-9.69-.2l7.75,20.25a2.14,2.14,0,0,1,2.05.27A2.18,2.18,0,0,1,207.8,276.18Zm-12.43-34.81a44.43,44.43,0,0,1-7.7,7.1l-3.29-4.53a40,40,0,0,0,8.8-8.81l1.36,1,1,4.4A.91.91,0,0,1,195.37,241.37Z"/><path class="cls-9" d="M191.16,233.66a37,37,0,0,0,5.3-10.39l-.83-.27-11.3-1.59,9.12,6.87-10.92-3.34,7.93,8.21Zm29.59,16.44a4.25,4.25,0,0,0,4.08-7.43,3.88,3.88,0,0,0-1.57-.57,6.31,6.31,0,0,1,3.47,1c2.63,1.63,3.67,4.71,2.32,6.88a4.33,4.33,0,0,1-3.41,2c6.09,3.88,5.33,10,10.54,14.45l-9.53-6.92C224,256.3,225.4,253,220.75,250.1Zm9.94-12.49a66.67,66.67,0,0,0-8.61,2.12,10.36,10.36,0,0,1-.74,7.73c.62-3.53-2-7.93-6.4-10.29Zm2.7-.17a2.15,2.15,0,0,1-.89-1.87l-21.66-1.11c3.68,2.07,4.85,6.31,3.19,9.15,0-2.78-2.78-4.2-4.22-2.23-.84,1.16-.16,3.22,1.67,4.55,3.26,2.37,7.11-.3,5.65-4.07,4.21,3.49,2.55,7.81-.89,8.36,4.8.29,4.6,4.33,6.95,6.72l-19-13.81L202.09,237a.94.94,0,0,1,.09-.8,48.27,48.27,0,0,0,4.36-9.63l30.2,9.81A2.18,2.18,0,0,1,233.39,237.44ZM199,235.75l-4.5.37-1.36-1A39.86,39.86,0,0,0,198.84,224l5.33,1.73a45.13,45.13,0,0,1-4.38,9.52A.94.94,0,0,1,199,235.75Z"/><path class="cls-8" d="M197.42,211.74l-11.24,2L197,217.44l-11.41.2L195.63,223l.83.27a37.26,37.26,0,0,0,1.83-11.53Zm44.73,0h11.78c-6.82.53-9.81,5.94-17,5.5a4.34,4.34,0,0,1,1.61,3.59c-.19,2.55-2.84,4.43-5.93,4.2a6.41,6.41,0,0,1-3.38-1.25,4,4,0,0,0,1.61.47,4.26,4.26,0,0,0,1.06-8.42C237.37,216.21,238.13,212.72,242.15,211.74Zm-22.57,11.14c4.93.66,9.66-1.34,11.22-4.56a10.29,10.29,0,0,1-3.93,6.69,65.58,65.58,0,0,0,5.71,6.77Zm17.16,13.47-30.2-9.81a47.91,47.91,0,0,0,2.13-10.35.94.94,0,0,1,.4-.7l5.31-3.75h23.5c-3.31.55-5.52,3.93-9.58,1.35,2.46,2.46,1.27,6.94-4.18,7.28,3.39-2.19,1.84-6.61-2.19-6.61-2.26,0-4,1.27-4,2.7,0,2.44,3.13,2.95,4.72.68-.32,3.27-3.76,6-8,5.53l18.18,11.83a2.15,2.15,0,0,1,1.82-1A2.18,2.18,0,0,1,236.74,236.35ZM206.22,215.5a45.4,45.4,0,0,1-2.05,10.27L198.84,224a39.69,39.69,0,0,0,1.94-12.3h1.68l3.43,2.94A1,1,0,0,1,206.22,215.5Z"/><path class="cls-9" d="M198.29,211.74a37.31,37.31,0,0,0-1.83-11.53l-.83.27-10.07,5.36L197,206l-10.79,3.72,11.24,2Zm33.59-4.09a4.26,4.26,0,0,0-1.06-8.42,4,4,0,0,0-1.61.47,6.41,6.41,0,0,1,3.38-1.25c3.09-.23,5.74,1.65,5.93,4.2a4.34,4.34,0,0,1-1.61,3.59c7.21-.44,10.2,5,17,5.5H242.15C238.13,210.76,237.36,207.27,231.88,207.65Zm.7-16a65.58,65.58,0,0,0-5.71,6.77,10.34,10.34,0,0,1,3.94,6.69c-1.57-3.21-6.3-5.22-11.23-4.56Zm2.09-1.72a2.16,2.16,0,0,1-1.82-1l-18.18,11.82c4.2-.48,7.64,2.26,8,5.53-1.59-2.27-4.72-1.76-4.72.68,0,1.43,1.76,2.7,4,2.7,4,0,5.58-4.42,2.19-6.61,5.45.34,6.64,4.82,4.18,7.28,4.06-2.58,6.27.8,9.58,1.35h-23.5L209.07,208a.94.94,0,0,1-.4-.7,47.91,47.91,0,0,0-2.13-10.35l30.2-9.81A2.18,2.18,0,0,1,234.67,190ZM205.89,208.8l-3.43,2.94h-1.68a39.69,39.69,0,0,0-1.94-12.3l5.33-1.73A45.4,45.4,0,0,1,206.22,208,1,1,0,0,1,205.89,208.8Z"/><path class="cls-8" d="M149.73,177.09l5.36,10.08.2-11.41L159,186.55l2-11.24v-.87a37,37,0,0,0-11.53,1.83ZM135.9,134.55l-3.64-11.2c2.61,6.32,8.68,7.49,10.5,14.48a4.33,4.33,0,0,1,2.91-2.64c2.48-.61,5.09,1.34,5.83,4.34a6.33,6.33,0,0,1-.15,3.6,3.93,3.93,0,0,0,0-1.67,4.25,4.25,0,0,0-8.33,1.59C141.63,137.72,138.07,138.07,135.9,134.55Zm17.57,18c-.9-4.89-4.26-8.77-7.81-9.27a10.34,10.34,0,0,1,7.58,1.68,64.37,64.37,0,0,0,4.68-7.53ZM161,132.09v31.75a47.82,47.82,0,0,0-10.5,1.18,1,1,0,0,1-.79-.17L144.48,161l-7.26-22.35c1.55,3,5.45,4,4.25,8.69,1.58-3.1,6.21-3.35,8.22,1.73-3.14-2.55-6.86.29-5.61,4.12.69,2.15,2.44,3.43,3.8,3,2.32-.75,1.84-3.88-.81-4.7,3.21-.7,6.88,1.73,7.72,5.86l5.63-20.93a2.18,2.18,0,0,1,.56-4.28Zm-10.4,35.46a45.2,45.2,0,0,1,10.4-1.21v5.6a39.88,39.88,0,0,0-12.29,1.95l-.52-1.59,1.74-4.18A1,1,0,0,1,150.58,167.55Z"/><path class="cls-9" d="M172.51,176.27A37,37,0,0,0,161,174.44v.87l2,11.24,3.71-10.79.2,11.41,5.36-10.08ZM179,143.05a4.25,4.25,0,0,0-8.33-1.59,3.93,3.93,0,0,0,0,1.67,6.33,6.33,0,0,1-.15-3.6c.74-3,3.35-4.95,5.83-4.34a4.33,4.33,0,0,1,2.91,2.64c1.82-7,7.89-8.16,10.49-14.48l-3.63,11.2C183.9,138.07,180.33,137.72,179,143.05Zm-14.95-5.6a64.37,64.37,0,0,0,4.68,7.53,10.33,10.33,0,0,1,7.57-1.68c-3.54.5-6.91,4.38-7.8,9.27Zm-1-2.51a2.15,2.15,0,0,1-1.5,1.43l5.63,20.93c.84-4.13,4.51-6.56,7.72-5.86-2.65.82-3.13,3.95-.81,4.7,1.36.44,3.11-.84,3.8-3,1.25-3.83-2.47-6.67-5.61-4.12,2-5.08,6.64-4.83,8.22-1.73-1.2-4.66,2.7-5.71,4.25-8.69L177.49,161l-5.21,3.89a1,1,0,0,1-.79.17A47.84,47.84,0,0,0,161,163.84V132.09A2.17,2.17,0,0,1,163.05,134.94Zm9,33.18,1.74,4.18-.52,1.59a39.89,39.89,0,0,0-12.3-1.95v-5.6a45.22,45.22,0,0,1,10.41,1.21A1,1,0,0,1,172.06,168.12Z"/><path class="cls-8" d="M172.24,177.09l-1.58,11.3,6.87-9.11-3.34,10.91,8.21-7.92.51-.71a37.21,37.21,0,0,0-10.4-5.29Zm13.83-42.54,3.63-11.2c-1.6,6.65,2.62,11.16,0,17.89a4.3,4.3,0,0,1,3.91-.43c2.36,1,3.33,4.07,2.16,6.93a6.2,6.2,0,0,1-2.23,2.83,3.94,3.94,0,0,0,.94-1.38,4.25,4.25,0,0,0-7.67-3.61C188.84,140.48,185.75,138.67,186.07,134.55Zm3.62,24.9c2.14-4.48,1.7-9.59-.88-12.08a10.31,10.31,0,0,1,5.15,5.81,64,64,0,0,0,8.21-3.34ZM207.8,147.3,189.14,173a48.11,48.11,0,0,0-9.19-5.22,1,1,0,0,1-.54-.61l-1.92-6.2,7.26-22.35c-.51,3.32,2,6.46-1.68,9.53,3.1-1.58,7,.94,5.63,6.23-1-3.91-5.71-3.8-7,0-.7,2.15,0,4.22,1.33,4.66,2.31.75,3.77-2.06,2.1-4.28,3,1.32,4.55,5.44,2.8,9.28l16.86-13.63a2.18,2.18,0,0,1,3-3.13Zm-29.26,22.58a44.72,44.72,0,0,1,9.13,5.13l-3.29,4.53a40.06,40.06,0,0,0-11.1-5.65l.52-1.59,3.86-2.36A1,1,0,0,1,178.54,169.88Z"/><path class="cls-9" d="M191.16,189.82a37.15,37.15,0,0,0-8.25-8.26l-.51.71-5,10.25,9.35-6.54-6.55,9.35,10.26-5Zm24.77-23.06a4.26,4.26,0,0,0-5.8-6.19,4,4,0,0,0-1,1.33,6.32,6.32,0,0,1,2-3c2.35-2,5.61-2,7.26-.09a4.31,4.31,0,0,1,.8,3.85c5.58-4.59,11.18-2,17-5.55L226.65,164C222.82,165.6,220.15,163.23,215.93,166.76Zm-8.8-13.32a65.21,65.21,0,0,0-.64,8.84,10.39,10.39,0,0,1,7.12,3.1c-3.17-1.68-8.17-.52-11.76,2.91Zm.67-2.62a2.14,2.14,0,0,1-2.05.27L198,171.34c3.11-2.85,7.5-2.65,9.69-.2-2.63-.9-4.86,1.35-3.43,3.32.85,1.16,3,1.15,4.84-.18,3.27-2.37,1.92-6.86-2.12-6.63,4.62-2.93,8.22,0,7.67,3.43,1.77-4.48,5.54-3,8.54-4.54l-19,13.81-6.5.09a.91.91,0,0,1-.74-.33,48.49,48.49,0,0,0-7.81-7.12L207.8,147.3A2.17,2.17,0,0,1,207.8,150.82ZM195.58,183l-1,4.4-1.36,1a40.18,40.18,0,0,0-8.8-8.81l3.29-4.53a45.25,45.25,0,0,1,7.71,7.1A.94.94,0,0,1,195.58,183Z"/><path class="cls-8" d="M190.46,190.33l-7.93,8.21,10.92-3.34-9.12,6.87,11.3-1.59.83-.27a37,37,0,0,0-5.3-10.39ZM226.65,164l9.53-6.92c-5.21,4.44-4.45,10.57-10.54,14.46a4.29,4.29,0,0,1,3.41,2c1.35,2.17.31,5.26-2.32,6.88a6.31,6.31,0,0,1-3.47,1,4,4,0,0,0,1.57-.56,4.26,4.26,0,0,0-4.08-7.44C225.4,170.46,224,167.18,226.65,164Zm-11.71,22.28c4.37-2.36,7-6.76,6.4-10.29a10.36,10.36,0,0,1,.74,7.73,66.67,66.67,0,0,0,8.61,2.12Zm21.8.82-30.2,9.81a48.27,48.27,0,0,0-4.36-9.63.94.94,0,0,1-.09-.8l2.1-6.16,19-13.81c-2.35,2.39-2.15,6.43-6.95,6.73,3.44.54,5.1,4.87.89,8.35,1.46-3.77-2.39-6.44-5.65-4.07-1.83,1.33-2.51,3.39-1.67,4.55,1.44,2,4.27.55,4.22-2.23,1.66,2.84.49,7.08-3.19,9.15l21.66-1.11a2.15,2.15,0,0,1,.89-1.87A2.18,2.18,0,0,1,236.74,187.13Zm-37,1.06a45.13,45.13,0,0,1,4.38,9.52l-5.33,1.73a39.86,39.86,0,0,0-5.66-11.09l1.36-1,4.5.37A.94.94,0,0,1,199.79,188.19Z"/><path class="cls-8" d="M59.54,34.81A37,37,0,0,0,48,36.64l.27.83,5.36,10.07.2-11.41,3.71,10.79,2-11.24ZM55.44,1.22A4.25,4.25,0,0,0,47,2.28a3.92,3.92,0,0,0,.47,1.6A6.19,6.19,0,0,1,46.25.5C46-2.58,47.9-5.24,50.45-5.43A4.35,4.35,0,0,1,54-3.81c-.44-7.21,5-10.2,5.5-17V-9C58.56-5,55.07-4.27,55.44,1.22ZM39.5.51a65.85,65.85,0,0,0,6.77,5.72A10.3,10.3,0,0,1,53,2.29c-3.22,1.57-5.22,6.3-4.56,11.22ZM37.77-1.57a2.16,2.16,0,0,1-1,1.82L48.61,18.42c-.48-4.19,2.26-7.63,5.53-8-2.27,1.6-1.76,4.72.68,4.72,1.43,0,2.69-1.76,2.69-4,0-4-4.41-5.59-6.61-2.19.35-5.45,4.82-6.65,7.29-4.18C55.6.73,59-1.47,59.54-4.78V18.71L55.79,24a1,1,0,0,1-.7.41,47.2,47.2,0,0,0-10.35,2.13L34.92-3.64A2.17,2.17,0,0,1,37.77-1.57ZM56.6,27.21l2.94,3.43v1.68a39.64,39.64,0,0,0-12.3,1.94l-1.73-5.33a45.19,45.19,0,0,1,10.27-2.06A1,1,0,0,1,56.6,27.21Z"/><path class="cls-9" d="M38.12,42.64l8.21,7.92L43,39.65l6.87,9.11-1.59-11.3L48,36.64a37.17,37.17,0,0,0-10.4,5.29ZM11.83,6.45,4.91-3.08C9.34,2.13,15.48,1.36,19.36,7.46a4.33,4.33,0,0,1,2-3.42c2.17-1.35,5.25-.3,6.88,2.33a6.31,6.31,0,0,1,1,3.47,4.07,4.07,0,0,0-.57-1.58,4.26,4.26,0,0,0-7.43,4.09C18.26,7.69,15,9.12,11.83,6.45ZM34.11,18.16c-2.37-4.37-6.76-7-10.29-6.4A10.29,10.29,0,0,1,31.54,11a64.61,64.61,0,0,0,2.13-8.6Zm.81-21.8,9.82,30.2a47.17,47.17,0,0,0-9.63,4.36,1,1,0,0,1-.81.08l-6.15-2.09L14.34,9.9c2.39,2.36,6.43,2.15,6.72,7,.55-3.44,4.87-5.11,8.35-.9-3.76-1.46-6.43,2.39-4.06,5.66,1.33,1.82,3.39,2.5,4.55,1.66,2-1.43.55-4.26-2.23-4.22,2.83-1.65,7.08-.48,9.15,3.19L35.71.6a2.15,2.15,0,0,1-1.87-.89A2.18,2.18,0,0,1,34.92-3.64ZM36,33.3a45.09,45.09,0,0,1,9.52-4.37l1.73,5.33a39.59,39.59,0,0,0-11.09,5.66l-1-1.36.37-4.51A.94.94,0,0,1,36,33.3Z"/><path class="cls-8" d="M37.61,41.93a37.15,37.15,0,0,0-8.25,8.26l.71.51,10.25,5-6.54-9.35,9.34,6.54-5-10.25ZM14.55,17.16A4.26,4.26,0,0,0,8.37,23a4.15,4.15,0,0,0,1.32,1,6.25,6.25,0,0,1-3-2c-2-2.36-2-5.61-.09-7.27a4.34,4.34,0,0,1,3.85-.8c-4.59-5.57-2-11.17-5.55-17l6.92,9.53C13.4,10.27,11,13,14.55,17.16ZM1.24,26a65.09,65.09,0,0,0,8.84.64,10.28,10.28,0,0,1,3.1-7.12c-1.68,3.16-.52,8.16,2.9,11.76Zm-2.62-.68a2.19,2.19,0,0,1,.27,2.06L19.14,35.1c-2.85-3.11-2.66-7.51-.2-9.69-.9,2.63,1.35,4.85,3.32,3.42,1.16-.84,1.14-3-.18-4.84-2.37-3.26-6.86-1.91-6.64,2.12-2.92-4.61,0-8.21,3.44-7.67-4.48-1.76-3-5.54-4.54-8.54l13.81,19,.09,6.5a1,1,0,0,1-.33.74A47.22,47.22,0,0,0,20.79,44L-4.9,25.29A2.18,2.18,0,0,1-1.38,25.29ZM30.76,37.51l4.4,1.05,1,1.36a39.54,39.54,0,0,0-8.81,8.8l-4.54-3.3a45.64,45.64,0,0,1,7.11-7.7A1,1,0,0,1,30.76,37.51Z"/><path class="cls-9" d="M24.89,60.85l11.3,1.59-9.11-6.87L38,58.9l-7.92-8.2-.71-.51a37.18,37.18,0,0,0-5.3,10.39ZM-17.65,47l-11.21-3.64c6.65,1.61,11.17-2.62,17.89,0a4.3,4.3,0,0,1-.42-3.91c1-2.37,4.07-3.34,6.93-2.17a6.39,6.39,0,0,1,2.83,2.24A4,4,0,0,0-3,38.63,4.2,4.2,0,0,0-8.44,41a4.2,4.2,0,0,0,1.82,5.31C-11.72,44.26-13.53,47.34-17.65,47Zm24.9-3.62c-4.48-2.15-9.6-1.71-12.08.87A10.29,10.29,0,0,1,1,39.14a65.5,65.5,0,0,0-3.34-8.21ZM-4.9,25.29,20.79,44a47,47,0,0,0-5.23,9.19,1,1,0,0,1-.6.54L8.75,55.61l-22.34-7.26c3.31.5,6.46-2,9.52,1.68-1.58-3.11,1-7,6.23-5.64-3.9,1-3.79,5.72,0,7,2.15.7,4.21,0,4.66-1.32.75-2.32-2.07-3.77-4.29-2.1,1.32-3,5.45-4.56,9.28-2.8L-1.77,28.26a2.16,2.16,0,0,1-2,.38A2.18,2.18,0,0,1-4.9,25.29ZM17.67,54.56a45.31,45.31,0,0,1,5.14-9.14l4.53,3.3a39.86,39.86,0,0,0-5.65,11.09l-1.59-.52-2.36-3.85A1,1,0,0,1,17.67,54.56Z"/><path class="cls-8" d="M24.06,60.58a37.06,37.06,0,0,0-1.82,11.53h.87l11.23-2L23.55,66.41,35,66.21,24.89,60.85ZM-9.15,54.1a4.2,4.2,0,0,0-4.59,3.22,4.19,4.19,0,0,0,3,5.11,3.93,3.93,0,0,0,1.67,0,6.33,6.33,0,0,1-3.6.14c-3-.73-5-3.34-4.34-5.83a4.3,4.3,0,0,1,2.64-2.91c-7-1.81-8.16-7.88-14.49-10.49L-17.65,47C-14.13,49.2-14.48,52.76-9.15,54.1Zm-5.6,14.95a67.17,67.17,0,0,0,7.53-4.68A10.35,10.35,0,0,1-8.9,56.79c.5,3.55,4.38,6.91,9.27,7.81Zm-2.51,1a2.17,2.17,0,0,1,1.42,1.51L5.1,65.91C1,65.07-1.46,61.4-.76,58.19c.81,2.66,4,3.14,4.7.82.44-1.36-.84-3.11-3-3.81C-2.89,54-5.72,57.68-3.17,60.81c-5.08-2-4.83-6.64-1.73-8.22-4.66,1.2-5.71-2.7-8.69-4.24L8.75,55.61l3.9,5.2a1,1,0,0,1,.16.8,47.67,47.67,0,0,0-1.17,10.5H-20.11A2.18,2.18,0,0,1-17.26,70Zm33.18-9,4.18-1.74,1.59.52a40,40,0,0,0-2,12.3H14.13A45.37,45.37,0,0,1,15.35,61.7,1,1,0,0,1,15.92,61Z"/><path class="cls-9" d="M59.54,108.54l-2-11.24-3.71,10.79-.2-11.41-5.36,10.08-.27.83a37.26,37.26,0,0,0,11.53,1.82Zm0,44.74v11.77c-.53-6.82-5.94-9.81-5.5-17a4.32,4.32,0,0,1-3.59,1.62c-2.55-.19-4.43-2.85-4.2-5.93a6.19,6.19,0,0,1,1.25-3.38,3.92,3.92,0,0,0-.47,1.6A4.25,4.25,0,0,0,55.44,143C55.07,148.49,58.56,149.26,59.54,153.28ZM48.4,130.71c-.66,4.92,1.34,9.65,4.56,11.22A10.3,10.3,0,0,1,46.27,138a65.85,65.85,0,0,0-6.77,5.72ZM34.92,147.86l9.82-30.2a47.2,47.2,0,0,0,10.35,2.13,1,1,0,0,1,.7.41l3.75,5.31V149c-.55-3.31-3.94-5.51-1.35-9.58-2.47,2.47-6.94,1.27-7.29-4.18,2.2,3.4,6.61,1.85,6.61-2.18,0-2.26-1.26-4-2.69-4-2.44,0-3,3.12-.68,4.72-3.27-.33-6-3.77-5.53-8L36.78,144a2.17,2.17,0,0,1-1.86,3.89Zm20.86-30.51a44.65,44.65,0,0,1-10.27-2.06L47.24,110a39.64,39.64,0,0,0,12.3,1.94v1.68L56.6,117A1,1,0,0,1,55.78,117.35Z"/><path class="cls-8" d="M37.61,102.29a37.47,37.47,0,0,0,10.4,5.3l.27-.83,1.59-11.3L43,104.57l3.33-10.91-8.21,7.92ZM21.18,131.87A4.26,4.26,0,0,0,28.61,136a4,4,0,0,0,.57-1.58,6.36,6.36,0,0,1-1,3.48c-1.63,2.63-4.71,3.67-6.88,2.32a4.33,4.33,0,0,1-2-3.42c-3.88,6.1-10,5.33-14.45,10.54l6.92-9.53C15,135.1,18.26,136.53,21.18,131.87Zm12.49,9.94a65,65,0,0,0-2.13-8.6,10.29,10.29,0,0,1-7.72-.75c3.53.62,7.92-2,10.29-6.4Zm.17,2.7a2.2,2.2,0,0,1,1.87-.89L36.82,122c-2.07,3.67-6.32,4.85-9.15,3.19,2.78,0,4.2-2.79,2.23-4.22-1.16-.84-3.22-.16-4.55,1.67-2.37,3.26.3,7.11,4.06,5.65-3.48,4.21-7.8,2.54-8.35-.9-.29,4.81-4.33,4.6-6.72,7l13.81-19,6.15-2.09a1,1,0,0,1,.81.08,47.17,47.17,0,0,0,9.63,4.36l-9.82,30.2A2.18,2.18,0,0,1,33.84,144.51Zm1.69-34.34-.37-4.51,1-1.36A39.59,39.59,0,0,0,47.24,110l-1.73,5.33A45.09,45.09,0,0,1,36,110.92.94.94,0,0,1,35.53,110.17Z"/><path class="cls-9" d="M38.12,101.58l5-10.25-9.34,6.54,6.54-9.35-10.25,5-.71.52a37.32,37.32,0,0,0,8.25,8.25ZM11.83,137.77,4.91,147.3c3.58-5.83,1-11.43,5.55-17a4.31,4.31,0,0,1-3.85-.8c-1.95-1.66-1.91-4.91.09-7.27a6.25,6.25,0,0,1,3-2A4.1,4.1,0,0,0,9,127.14a4.19,4.19,0,0,0,5.6-.08C11,131.27,13.4,134,11.83,137.77ZM16.08,113c-3.42,3.6-4.58,8.6-2.9,11.76a10.27,10.27,0,0,1-3.1-7.12,65.09,65.09,0,0,0-8.84.64Zm-21,6,25.69-18.67a47.22,47.22,0,0,0,7.12,7.81,1,1,0,0,1,.33.74l-.09,6.5-13.81,19c1.51-3,.06-6.78,4.54-8.54-3.44.54-6.36-3.06-3.44-7.67-.22,4,4.27,5.38,6.64,2.12,1.32-1.83,1.34-4,.18-4.84-2-1.43-4.22.8-3.32,3.42-2.46-2.18-2.65-6.58.2-9.69l-20.25,7.75a2.18,2.18,0,0,1-.27,2.06A2.18,2.18,0,0,1-4.9,118.93ZM29.91,106.5a45.64,45.64,0,0,1-7.11-7.7l4.54-3.3a39.54,39.54,0,0,0,8.81,8.8l-1,1.36-4.4,1A1,1,0,0,1,29.91,106.5Z"/><path class="cls-8" d="M24.06,83.64A37.38,37.38,0,0,0,29.36,94l.71-.52L38,85.32,27.08,88.65l9.11-6.87-11.3,1.59ZM-6.62,97.91a4.2,4.2,0,0,0-1.82,5.31A4.2,4.2,0,0,0-3,105.59a4.07,4.07,0,0,0,1.38-.94,6.44,6.44,0,0,1-2.83,2.23c-2.86,1.17-6,.2-6.93-2.17A4.3,4.3,0,0,1-11,100.8c-6.72,2.65-11.24-1.57-17.89,0l11.21-3.64C-13.53,96.88-11.72,100-6.62,97.91Zm4.26,15.38A65.35,65.35,0,0,0,1,105.09a10.35,10.35,0,0,1-5.81-5.15c2.48,2.58,7.6,3,12.08.87Zm-1.45,2.29a2.16,2.16,0,0,1,2,.38L11.85,99.09c-3.83,1.76-8,.21-9.28-2.8,2.22,1.67,5,.22,4.29-2.1-.45-1.36-2.51-2-4.66-1.32-3.83,1.24-3.94,5.93,0,7-5.28,1.36-7.81-2.53-6.23-5.64-3.06,3.72-6.21,1.18-9.52,1.68L8.75,88.61,15,90.53a1,1,0,0,1,.6.55,47.25,47.25,0,0,0,5.23,9.18L-4.9,118.93A2.18,2.18,0,0,1-3.81,115.58ZM17.74,88.79l2.36-3.86,1.59-.52a40.06,40.06,0,0,0,5.65,11.1L22.81,98.8a45,45,0,0,1-5.14-9.14A1,1,0,0,1,17.74,88.79Z"/><path class="cls-9" d="M24.89,83.37,35,78l-11.41-.2,10.79-3.72-11.23-2h-.87a37.06,37.06,0,0,0,1.82,11.53ZM-17.65,97.19l-11.21,3.64c6.33-2.61,7.5-8.68,14.49-10.49A4.3,4.3,0,0,1-17,87.43c-.61-2.49,1.33-5.1,4.34-5.83a6.33,6.33,0,0,1,3.6.14,3.93,3.93,0,0,0-1.67.05,4.19,4.19,0,0,0-3,5.11,4.2,4.2,0,0,0,4.59,3.22C-14.48,91.46-14.13,95-17.65,97.19Zm18-17.56c-4.89.89-8.77,4.26-9.27,7.8a10.35,10.35,0,0,1,1.68-7.58,65.64,65.64,0,0,0-7.53-4.67Zm-20.48-7.52H11.64a47.67,47.67,0,0,0,1.17,10.5,1,1,0,0,1-.16.8l-3.9,5.2-22.34,7.26c3-1.54,4-5.44,8.69-4.24-3.1-1.58-3.35-6.21,1.73-8.22C-5.72,86.54-2.89,90.27,1,89c2.15-.7,3.43-2.45,3-3.81C3.19,82.89.05,83.37-.76,86c-.7-3.21,1.72-6.88,5.86-7.72l-20.94-5.63a2.18,2.18,0,0,1-1.42,1.5A2.17,2.17,0,0,1-20.11,72.11ZM15.35,82.52a45.3,45.3,0,0,1-1.22-10.41h5.61a40,40,0,0,0,2,12.3l-1.59.52-4.18-1.74A1,1,0,0,1,15.35,82.52Z"/><path class="cls-8" d="M59.54,109.41a37.19,37.19,0,0,0,11.52-1.82l-.27-.83L65.44,96.68l-.2,11.41L61.52,97.3l-2,11.24ZM63.63,143a4.26,4.26,0,0,0,8.42-1.06,3.92,3.92,0,0,0-.47-1.6,6.35,6.35,0,0,1,1.25,3.38c.23,3.08-1.65,5.74-4.21,5.93A4.3,4.3,0,0,1,65,148c.44,7.21-5,10.2-5.5,17V153.28C60.51,149.26,64,148.49,63.63,143Zm15.95.71A66,66,0,0,0,72.8,138a10.26,10.26,0,0,1-6.68,3.94c3.21-1.57,5.21-6.3,4.56-11.22Zm1.72,2.08a2.19,2.19,0,0,1,1-1.82L70.46,125.8c.49,4.19-2.26,7.63-5.53,8,2.28-1.6,1.77-4.72-.67-4.72-1.43,0-2.7,1.76-2.7,4,0,4,4.42,5.58,6.61,2.18-.34,5.45-4.82,6.65-7.28,4.18,2.58,4.07-.81,6.27-1.35,9.58V125.51l3.75-5.31a1,1,0,0,1,.7-.41,47.32,47.32,0,0,0,10.35-2.13l9.81,30.2A2.17,2.17,0,0,1,81.3,145.79ZM62.48,117l-2.94-3.44V111.9A39.74,39.74,0,0,0,71.84,110l1.73,5.33a44.84,44.84,0,0,1-10.28,2.06A1,1,0,0,1,62.48,117Z"/><path class="cls-9" d="M81,101.58l-8.21-7.92,3.34,10.91-6.87-9.11,1.58,11.3.27.83a37.2,37.2,0,0,0,10.4-5.3Zm26.29,36.19,6.93,9.53c-4.44-5.21-10.57-4.44-14.46-10.54a4.3,4.3,0,0,1-1.95,3.42c-2.18,1.35-5.26.31-6.89-2.32a6.43,6.43,0,0,1-1-3.48,4,4,0,0,0,.56,1.58,4.26,4.26,0,0,0,7.43-4.09C100.81,136.53,104.09,135.1,107.24,137.77ZM85,126.06c2.36,4.37,6.76,7,10.29,6.4a10.32,10.32,0,0,1-7.73.75,63.41,63.41,0,0,0-2.12,8.6Zm-.82,21.8-9.81-30.2A47.33,47.33,0,0,0,84,113.3a1,1,0,0,1,.81-.08l6.15,2.09,13.81,19c-2.38-2.36-6.42-2.15-6.72-7-.54,3.44-4.87,5.11-8.35.9,3.77,1.46,6.43-2.39,4.06-5.65-1.33-1.83-3.38-2.51-4.54-1.67-2,1.43-.55,4.26,2.23,4.22-2.84,1.66-7.08.48-9.16-3.19l1.12,21.65a2.2,2.2,0,0,1,1.87.89A2.18,2.18,0,0,1,84.15,147.86Zm-1.06-36.94a45.32,45.32,0,0,1-9.52,4.37L71.84,110a39.73,39.73,0,0,0,11.09-5.66l1,1.36-.36,4.51A1,1,0,0,1,83.09,110.92Z"/><path class="cls-8" d="M81.46,102.29A37.32,37.32,0,0,0,89.71,94l-.7-.52-10.25-5,6.54,9.35L76,91.33l5,10.25Zm23.06,24.77a4.26,4.26,0,0,0,6.18-5.81,4,4,0,0,0-1.32-1,6.28,6.28,0,0,1,3,2c2,2.36,2,5.61.08,7.27a4.34,4.34,0,0,1-3.85.8c4.59,5.57,2,11.17,5.56,17l-6.93-9.53C105.67,134,108.05,131.27,104.52,127.06Zm13.31-8.81a65,65,0,0,0-8.84-.64,10.3,10.3,0,0,1-3.09,7.12c1.68-3.16.52-8.16-2.91-11.76Zm2.62.68a2.18,2.18,0,0,1-.26-2.06l-20.25-7.75c2.85,3.11,2.65,7.51.2,9.69.9-2.62-1.35-4.85-3.32-3.42-1.16.84-1.15,3,.18,4.84,2.37,3.26,6.85,1.92,6.63-2.12,2.92,4.61,0,8.21-3.43,7.67,4.47,1.76,3,5.54,4.53,8.54l-13.81-19-.09-6.5a1,1,0,0,1,.33-.74,47.73,47.73,0,0,0,7.13-7.81L124,118.93A2.18,2.18,0,0,1,120.45,118.93ZM88.31,106.71l-4.4-1-1-1.36a39.75,39.75,0,0,0,8.81-8.8l4.53,3.3a46,46,0,0,1-7.1,7.7A1,1,0,0,1,88.31,106.71Z"/><path class="cls-9" d="M94.19,83.37,82.88,81.78,92,88.65,81.08,85.32,89,93.52l.7.52A37.11,37.11,0,0,0,95,83.64Zm42.54,13.82,11.2,3.64c-6.65-1.6-11.16,2.62-17.89,0a4.3,4.3,0,0,1,.43,3.91c-1,2.37-4.07,3.34-6.93,2.17a6.42,6.42,0,0,1-2.84-2.23,4.11,4.11,0,0,0,1.39.94,4.26,4.26,0,0,0,3.61-7.68C130.8,100,132.61,96.88,136.73,97.19Zm-24.9,3.62c4.47,2.15,9.59,1.71,12.08-.87a10.35,10.35,0,0,1-5.81,5.15,63.88,63.88,0,0,0,3.34,8.2ZM124,118.93,98.29,100.26a47.73,47.73,0,0,0,5.22-9.18,1,1,0,0,1,.6-.55l6.21-1.92,22.35,7.26c-3.32-.5-6.46,2-9.53-1.68,1.58,3.11-.94,7-6.23,5.64,3.91-1,3.8-5.72,0-7-2.14-.7-4.21,0-4.65,1.32-.76,2.32,2.06,3.77,4.28,2.1-1.32,3-5.44,4.56-9.28,2.8L120.85,116a2.17,2.17,0,0,1,3.12,3ZM101.4,89.66a45.48,45.48,0,0,1-5.13,9.14l-4.53-3.29a39.77,39.77,0,0,0,5.64-11.1l1.6.52,2.35,3.86A.93.93,0,0,1,101.4,89.66Z"/><path class="cls-8" d="M95,83.64a37.37,37.37,0,0,0,1.83-11.53H96l-11.23,2,10.79,3.72L84.11,78l10.08,5.36Zm33.22,6.48a4.25,4.25,0,0,0,1.59-8.33,3.94,3.94,0,0,0-1.67-.05,6.33,6.33,0,0,1,3.6-.14c3,.73,4.95,3.34,4.34,5.83a4.34,4.34,0,0,1-2.65,2.91c7,1.81,8.17,7.88,14.49,10.49l-11.2-3.64C133.21,95,133.56,91.46,128.23,90.12Zm5.59-14.94a67.41,67.41,0,0,0-7.53,4.67A10.26,10.26,0,0,1,128,87.43c-.5-3.54-4.37-6.91-9.26-7.8Zm2.52-1a2.19,2.19,0,0,1-1.43-1.5L114,78.31c4.13.84,6.56,4.51,5.86,7.72-.82-2.66-4-3.14-4.7-.82-.45,1.36.84,3.11,3,3.81,3.83,1.25,6.67-2.48,4.12-5.61,5.07,2,4.83,6.64,1.72,8.22,4.67-1.2,5.72,2.7,8.7,4.24l-22.35-7.26-3.89-5.2a1,1,0,0,1-.17-.8,47.67,47.67,0,0,0,1.17-10.5h31.76A2.18,2.18,0,0,1,136.34,74.18Zm-33.19,9L99,84.93l-1.6-.52a39.7,39.7,0,0,0,2-12.3h5.6a45.3,45.3,0,0,1-1.22,10.41A1,1,0,0,1,103.15,83.19Z"/><path class="cls-9" d="M59.54,35.68l2,11.24,3.72-10.79.2,11.41,5.35-10.07.27-.83a36.91,36.91,0,0,0-11.52-1.83ZM59.54-9V-20.83C60.07-14,65.48-11,65-3.81a4.33,4.33,0,0,1,3.58-1.62c2.56.19,4.44,2.85,4.21,5.93a6.35,6.35,0,0,1-1.25,3.38,3.92,3.92,0,0,0,.47-1.6,4.26,4.26,0,0,0-8.42-1.06C64-4.27,60.51-5,59.54-9ZM70.68,13.51c.65-4.92-1.35-9.65-4.56-11.22A10.26,10.26,0,0,1,72.8,6.23,66,66,0,0,0,79.58.51ZM84.15-3.64l-9.81,30.2A47.32,47.32,0,0,0,64,24.43a1,1,0,0,1-.7-.41l-3.75-5.31V-4.78c.54,3.31,3.93,5.51,1.35,9.58C63.35,2.33,67.83,3.53,68.17,9c-2.19-3.4-6.61-1.85-6.61,2.19,0,2.25,1.27,4,2.7,4,2.44,0,2.95-3.12.67-4.72,3.27.33,6,3.77,5.53,8L82.29.25a2.19,2.19,0,0,1-1-1.82A2.17,2.17,0,0,1,84.15-3.64ZM63.29,26.87a45.38,45.38,0,0,1,10.28,2.06l-1.73,5.33a39.74,39.74,0,0,0-12.3-1.94V30.64l2.94-3.43A1,1,0,0,1,63.29,26.87Z"/><path class="cls-8" d="M81.46,41.93a36.9,36.9,0,0,0-10.4-5.29l-.27.82-1.58,11.3,6.87-9.11L72.74,50.56,81,42.64ZM97.89,12.35a4.26,4.26,0,0,0-7.43-4.09,4.05,4.05,0,0,0-.56,1.58,6.38,6.38,0,0,1,1-3.47C92.5,3.74,95.58,2.69,97.76,4a4.3,4.3,0,0,1,1.95,3.42c3.89-6.1,10-5.33,14.46-10.54l-6.93,9.53C104.09,9.12,100.81,7.69,97.89,12.35ZM85.41,2.41A63,63,0,0,0,87.53,11a10.32,10.32,0,0,1,7.73.75c-3.53-.62-7.93,2-10.29,6.4Zm-.17-2.7A2.15,2.15,0,0,1,83.37.6L82.25,22.25c2.08-3.67,6.32-4.84,9.16-3.19-2.78,0-4.21,2.79-2.23,4.22,1.16.84,3.21.16,4.54-1.66,2.37-3.27-.29-7.12-4.06-5.66,3.48-4.21,7.81-2.54,8.35.9.3-4.81,4.34-4.6,6.72-7l-13.81,19L84.77,31a1,1,0,0,1-.81-.08,47.33,47.33,0,0,0-9.62-4.36l9.81-30.2A2.18,2.18,0,0,1,85.24-.29ZM83.55,34.05l.36,4.51-1,1.36a39.73,39.73,0,0,0-11.09-5.66l1.73-5.33a45.32,45.32,0,0,1,9.52,4.37A1,1,0,0,1,83.55,34.05Z"/><path class="cls-9" d="M81,42.64,76,52.89l9.35-6.54L78.76,55.7,89,50.7l.7-.51a37.15,37.15,0,0,0-8.25-8.26ZM107.24,6.45l6.93-9.53c-3.58,5.83-1,11.43-5.56,17a4.34,4.34,0,0,1,3.85.8c2,1.66,1.92,4.91-.08,7.27a6.28,6.28,0,0,1-3,2,4,4,0,0,0,1.32-1,4.26,4.26,0,0,0-6.18-5.81C108.05,13,105.67,10.27,107.24,6.45ZM103,31.25c3.43-3.6,4.59-8.6,2.91-11.76A10.32,10.32,0,0,1,109,26.61a65,65,0,0,0,8.84-.64Zm21-6L98.29,44a47.73,47.73,0,0,0-7.13-7.81,1,1,0,0,1-.33-.74l.09-6.5,13.81-19c-1.5,3-.06,6.78-4.53,8.54,3.44-.54,6.35,3.06,3.43,7.67.22-4-4.26-5.38-6.63-2.12-1.33,1.83-1.34,4-.18,4.84,2,1.43,4.22-.79,3.32-3.42,2.45,2.18,2.65,6.58-.2,9.69l20.25-7.75A2.17,2.17,0,0,1,124,25.29ZM89.17,37.72a46,46,0,0,1,7.1,7.7l-4.53,3.3a39.75,39.75,0,0,0-8.81-8.8l1-1.36,4.4-1.05A1,1,0,0,1,89.17,37.72Z"/><path class="cls-8" d="M95,60.58a36.92,36.92,0,0,0-5.3-10.39l-.7.51-7.93,8.2L92,55.57l-9.12,6.87,11.31-1.59ZM125.7,46.31a4.26,4.26,0,0,0-3.61-7.68,4,4,0,0,0-1.39.95,6.37,6.37,0,0,1,2.84-2.24c2.86-1.17,6-.2,6.93,2.17a4.3,4.3,0,0,1-.43,3.91c6.73-2.65,11.24,1.58,17.89,0L136.73,47C132.61,47.34,130.8,44.26,125.7,46.31Zm-4.26-15.38a64,64,0,0,0-3.34,8.21,10.29,10.29,0,0,1,5.81,5.14c-2.49-2.58-7.61-3-12.08-.87Zm1.45-2.29a2.15,2.15,0,0,1-2-.38L107.22,45.13c3.84-1.76,8-.21,9.28,2.8-2.22-1.67-5-.22-4.28,2.1.44,1.36,2.51,2,4.65,1.32,3.84-1.24,3.95-5.92,0-7,5.29-1.36,7.81,2.53,6.23,5.64,3.07-3.72,6.21-1.18,9.53-1.68l-22.35,7.26-6.21-1.92a1,1,0,0,1-.6-.54A47.51,47.51,0,0,0,98.29,44L124,25.29A2.17,2.17,0,0,1,122.89,28.64Zm-21.56,26.8L99,59.29l-1.6.52a39.57,39.57,0,0,0-5.64-11.09l4.53-3.3a45.76,45.76,0,0,1,5.13,9.14A1,1,0,0,1,101.33,55.44Z"/><path class="cls-9" d="M94.19,60.85,84.11,66.21l11.41.2L84.73,70.13l11.23,2h.88A37.37,37.37,0,0,0,95,60.58ZM136.73,47l11.2-3.64c-6.32,2.61-7.49,8.68-14.49,10.49a4.34,4.34,0,0,1,2.65,2.91c.61,2.49-1.34,5.1-4.34,5.83a6.33,6.33,0,0,1-3.6-.14,3.94,3.94,0,0,0,1.67,0,4.25,4.25,0,0,0-1.59-8.33C133.56,52.76,133.21,49.2,136.73,47Zm-18,17.57c4.89-.9,8.76-4.26,9.26-7.81a10.26,10.26,0,0,1-1.68,7.58,69,69,0,0,0,7.53,4.68Zm20.48,7.51H107.43a47.67,47.67,0,0,0-1.17-10.5,1,1,0,0,1,.17-.8l3.89-5.2,22.35-7.26c-3,1.54-4,5.44-8.7,4.24,3.11,1.58,3.35,6.21-1.72,8.22,2.55-3.13-.29-6.85-4.12-5.61-2.15.7-3.44,2.45-3,3.81.75,2.32,3.88,1.84,4.7-.82.7,3.21-1.73,6.88-5.86,7.72l20.93,5.64a2.18,2.18,0,0,1,4.28.56ZM103.72,61.7a45.37,45.37,0,0,1,1.22,10.41h-5.6a39.7,39.7,0,0,0-2-12.3l1.6-.52L103.15,61A1,1,0,0,1,103.72,61.7Z"/><path class="cls-9" d="M-30.39,247.21A37.35,37.35,0,0,0-20,241.92l-.52-.71-8.2-7.92,3.33,10.91-6.87-9.11,1.59,11.3Zm14.27,30.69a4.21,4.21,0,0,0,5.31,1.81,4.18,4.18,0,0,0,2.37-5.42,4.07,4.07,0,0,0-.94-1.38,6.39,6.39,0,0,1,2.23,2.83c1.17,2.86.2,6-2.17,6.93a4.34,4.34,0,0,1-3.91-.42c2.65,6.72-1.57,11.23,0,17.88l-3.64-11.2C-17.15,284.81-14.06,283-16.12,277.9Zm15.39-4.26a66.12,66.12,0,0,0-8.21-3.34,10.35,10.35,0,0,1-5.15,5.81c2.58-2.49,3-7.6.87-12.08Zm2.28,1.45a2.15,2.15,0,0,1,.38-2l-16.86-13.63c1.75,3.84.2,8-2.81,9.28,1.67-2.22.22-5-2.1-4.28-1.36.44-2,2.51-1.32,4.66,1.24,3.83,5.93,3.94,7,0,1.36,5.29-2.53,7.82-5.63,6.23,3.71,3.07,1.17,6.21,1.67,9.53l-7.26-22.35,1.92-6.2a1,1,0,0,1,.55-.61,48.11,48.11,0,0,0,9.19-5.22L4.9,276.18A2.18,2.18,0,0,1,1.55,275.09Zm-26.79-21.55-3.86-2.36-.52-1.59a40.06,40.06,0,0,0,11.1-5.65l3.29,4.53a44.53,44.53,0,0,1-9.14,5.13A1,1,0,0,1-25.24,253.54Z"/><path class="cls-8" d="M-12.44,233.15l-10.26-5,6.54,9.35L-25.51,231l5,10.25.51.71a37.19,37.19,0,0,0,8.26-8.26Zm36.19,26.3,9.52,6.92c-5.83-3.58-11.42-1-17-5.55a4.31,4.31,0,0,1-.8,3.85c-1.65,1.95-4.91,1.91-7.27-.09a6.3,6.3,0,0,1-2-3,4.08,4.08,0,0,0,1,1.33A4.26,4.26,0,0,0,13,256.72C17.25,260.25,19.92,257.88,23.75,259.45Zm-24.81-4.26c3.6,3.43,8.6,4.59,11.76,2.91a10.35,10.35,0,0,1-7.12,3.1A65.19,65.19,0,0,0,4.23,270Zm6,21-18.66-25.69A47.56,47.56,0,0,0-6,243.37a.93.93,0,0,1,.74-.33l6.5.09,19,13.81c-3-1.51-6.77-.06-8.54-4.54.54,3.44-3.06,6.36-7.67,3.43,4,.23,5.38-4.26,2.12-6.63-1.83-1.33-4-1.34-4.84-.18-1.43,2,.8,4.22,3.42,3.32-2.18,2.46-6.58,2.65-9.69-.2l7.75,20.25a2.18,2.18,0,0,1,2.06,3.79ZM-7.53,241.37a44.43,44.43,0,0,1-7.7,7.1l-3.29-4.53a39.71,39.71,0,0,0,8.79-8.81l1.36,1,1,4.4A1,1,0,0,1-7.53,241.37Z"/><path class="cls-9" d="M-11.74,233.66a37.28,37.28,0,0,0,5.3-10.39l-.83-.27-11.3-1.59,9.11,6.87-10.91-3.34,7.93,8.21ZM17.84,250.1a4.26,4.26,0,0,0,4.09-7.43,3.87,3.87,0,0,0-1.58-.57,6.36,6.36,0,0,1,3.48,1c2.63,1.63,3.67,4.71,2.32,6.88a4.33,4.33,0,0,1-3.41,2c6.09,3.88,5.33,10,10.53,14.45l-9.52-6.92C21.07,256.3,22.5,253,17.84,250.1Zm9.94-12.49a66.53,66.53,0,0,0-8.6,2.12,10.31,10.31,0,0,1-.75,7.73c.63-3.53-2-7.93-6.4-10.29Zm2.71-.17a2.19,2.19,0,0,1-.9-1.87L7.94,234.46c3.67,2.07,4.85,6.31,3.19,9.15,0-2.78-2.79-4.2-4.22-2.23-.84,1.16-.16,3.22,1.67,4.55,3.26,2.37,7.11-.3,5.65-4.07,4.21,3.49,2.54,7.81-.9,8.36,4.81.29,4.6,4.33,7,6.72l-19-13.81L-.81,237a1,1,0,0,1,.08-.8,47.17,47.17,0,0,0,4.36-9.63l30.2,9.81A2.17,2.17,0,0,1,30.49,237.44Zm-34.35-1.69-4.51.37-1.36-1A39.59,39.59,0,0,0-4.07,224l5.33,1.73a45.09,45.09,0,0,1-4.37,9.52A.94.94,0,0,1-3.86,235.75Z"/><path class="cls-8" d="M-5.49,211.74l-11.23,2,10.79,3.72-11.41.2L-7.27,223l.83.27a37.26,37.26,0,0,0,1.82-11.53Zm44.74,0H51c-6.82.53-9.81,5.94-17,5.5a4.32,4.32,0,0,1,1.62,3.59c-.19,2.55-2.85,4.43-5.93,4.2a6.38,6.38,0,0,1-3.38-1.25,3.92,3.92,0,0,0,1.6.47A4.26,4.26,0,0,0,29,215.83C34.46,216.21,35.23,212.72,39.25,211.74ZM16.68,222.88c4.92.66,9.65-1.34,11.22-4.56A10.3,10.3,0,0,1,24,225a66.93,66.93,0,0,0,5.72,6.77Zm17.15,13.47-30.2-9.81a47.32,47.32,0,0,0,2.13-10.35,1,1,0,0,1,.41-.7l5.31-3.75H35c-3.32.55-5.52,3.93-9.58,1.35,2.46,2.46,1.26,6.94-4.19,7.28,3.4-2.19,1.85-6.61-2.18-6.61-2.26,0-4,1.27-4,2.7,0,2.44,3.12,2.95,4.72.68-.33,3.27-3.77,6-8,5.53L29.94,234.5a2.17,2.17,0,0,1,3.89,1.85ZM3.32,215.5a44.87,44.87,0,0,1-2.06,10.27L-4.07,224a39.69,39.69,0,0,0,1.94-12.3H-.45L3,214.68A1,1,0,0,1,3.32,215.5Z"/><path class="cls-9" d="M-4.62,211.74a37.31,37.31,0,0,0-1.82-11.53l-.83.27-10.07,5.36,11.4.2-10.78,3.72,11.23,2ZM29,207.65a4.26,4.26,0,0,0-1.07-8.42,3.92,3.92,0,0,0-1.6.47,6.38,6.38,0,0,1,3.38-1.25c3.08-.23,5.74,1.65,5.93,4.2A4.32,4.32,0,0,1,34,206.24c7.21-.44,10.2,5,17,5.5H39.25C35.23,210.76,34.46,207.27,29,207.65Zm.7-16A66.93,66.93,0,0,0,24,198.47a10.3,10.3,0,0,1,3.94,6.69c-1.57-3.21-6.3-5.22-11.22-4.56ZM31.76,190a2.19,2.19,0,0,1-1.82-1L11.77,200.81c4.19-.48,7.63,2.26,8,5.53-1.6-2.27-4.72-1.76-4.72.68,0,1.43,1.76,2.7,4,2.7,4,0,5.58-4.42,2.18-6.61,5.45.34,6.65,4.82,4.19,7.28,4.06-2.58,6.26.8,9.58,1.35H11.48L6.17,208a1,1,0,0,1-.41-.7,47.32,47.32,0,0,0-2.13-10.35l30.2-9.81A2.17,2.17,0,0,1,31.76,190ZM3,208.8l-3.44,2.94H-2.13a39.69,39.69,0,0,0-1.94-12.3l5.33-1.73A44.87,44.87,0,0,1,3.32,208,1,1,0,0,1,3,208.8Z"/><path class="cls-8" d="M-30.66,177.09l-1.59,11.3,6.87-9.11-3.33,10.91,8.2-7.92.52-.71a37.35,37.35,0,0,0-10.4-5.29Zm13.82-42.54,3.64-11.2c-1.6,6.65,2.62,11.16,0,17.89a4.31,4.31,0,0,1,3.91-.43c2.37,1,3.34,4.07,2.17,6.93a6.33,6.33,0,0,1-2.23,2.83,4.07,4.07,0,0,0,.94-1.38,4.18,4.18,0,0,0-2.37-5.42,4.21,4.21,0,0,0-5.31,1.81C-14.06,140.48-17.15,138.67-16.84,134.55Zm3.62,24.9c2.15-4.48,1.71-9.59-.87-12.08a10.35,10.35,0,0,1,5.15,5.81,64.61,64.61,0,0,0,8.21-3.34ZM4.9,147.3-13.76,173a48.11,48.11,0,0,0-9.19-5.22,1,1,0,0,1-.55-.61l-1.92-6.2,7.26-22.35c-.5,3.32,2,6.46-1.68,9.53,3.11-1.58,7,.94,5.64,6.23-1-3.91-5.72-3.8-7,0-.7,2.15,0,4.22,1.32,4.66,2.32.75,3.77-2.06,2.1-4.28,3,1.32,4.56,5.44,2.81,9.28L1.93,150.43a2.16,2.16,0,0,1-.38-2A2.18,2.18,0,0,1,4.9,147.3Zm-29.27,22.58A44.79,44.79,0,0,1-15.23,175l-3.29,4.53a40.06,40.06,0,0,0-11.1-5.65l.52-1.59,3.86-2.36A1,1,0,0,1-24.37,169.88Z"/><path class="cls-9" d="M-11.74,189.82A37,37,0,0,0-20,181.56l-.51.71-5,10.25,9.35-6.54-6.54,9.35,10.26-5ZM13,166.76a4.26,4.26,0,0,0-5.81-6.19,4.08,4.08,0,0,0-1,1.33,6.3,6.3,0,0,1,2-3c2.36-2,5.62-2,7.27-.09a4.31,4.31,0,0,1,.8,3.85c5.57-4.59,11.17-2,17-5.55L23.75,164C19.92,165.6,17.25,163.23,13,166.76Zm-8.8-13.32a66.84,66.84,0,0,0-.65,8.84,10.35,10.35,0,0,1,7.12,3.1c-3.16-1.68-8.16-.52-11.76,2.91Zm.67-2.62a2.16,2.16,0,0,1-2.06.27l-7.75,20.25c3.11-2.85,7.51-2.65,9.69-.2-2.62-.9-4.85,1.35-3.42,3.32.84,1.16,3,1.15,4.84-.18,3.26-2.37,1.92-6.86-2.12-6.63,4.61-2.93,8.21,0,7.67,3.43,1.77-4.48,5.54-3,8.54-4.54l-19,13.81-6.5.09a.93.93,0,0,1-.74-.33A47.66,47.66,0,0,0-13.77,173L4.9,147.3A2.18,2.18,0,0,1,4.9,150.82ZM-7.32,183l-1,4.4-1.36,1a39.92,39.92,0,0,0-8.79-8.81l3.29-4.53a44.82,44.82,0,0,1,7.7,7.1A1,1,0,0,1-7.32,183Z"/><path class="cls-8" d="M-12.44,190.33l-7.93,8.21,10.91-3.34-9.11,6.87,11.3-1.59.83-.27a37.28,37.28,0,0,0-5.3-10.39ZM23.75,164l9.52-6.92c-5.2,4.44-4.44,10.57-10.53,14.46a4.29,4.29,0,0,1,3.41,2c1.35,2.17.31,5.26-2.32,6.88a6.34,6.34,0,0,1-3.48,1,4,4,0,0,0,1.58-.56,4.26,4.26,0,0,0-4.09-7.44C22.5,170.46,21.07,167.18,23.75,164ZM12,186.31c4.37-2.36,7-6.76,6.39-10.29a10.31,10.31,0,0,1,.75,7.73,66.67,66.67,0,0,0,8.61,2.12Zm21.79.82-30.2,9.81a47.17,47.17,0,0,0-4.36-9.63,1,1,0,0,1-.08-.8l2.09-6.16,19-13.81c-2.36,2.39-2.15,6.43-7,6.73,3.44.54,5.11,4.87.9,8.35,1.46-3.77-2.39-6.44-5.65-4.07-1.83,1.33-2.51,3.39-1.67,4.55,1.43,2,4.26.55,4.22-2.23,1.66,2.84.48,7.08-3.19,9.15l21.65-1.11a2.17,2.17,0,0,1,4.24-.78Zm-36.94,1.06a45.09,45.09,0,0,1,4.37,9.52l-5.32,1.73a39.9,39.9,0,0,0-5.67-11.09l1.36-1,4.51.37A.94.94,0,0,1-3.11,188.19Z"/><path class="cls-8" d="M172.24-32.91,166.88-43l-.2,11.41L163-42.37l-2,11.24v.87a37.32,37.32,0,0,0,11.53-1.83ZM186.07,9.63l3.63,11.2c-2.6-6.32-8.67-7.49-10.49-14.49A4.32,4.32,0,0,1,176.3,9c-2.48.61-5.09-1.34-5.83-4.34a6.33,6.33,0,0,1,.15-3.6,3.94,3.94,0,0,0,0,1.67,4.18,4.18,0,0,0,5.1,3A4.21,4.21,0,0,0,179,1.13C180.33,6.46,183.9,6.11,186.07,9.63Zm-17.57-18c.89,4.89,4.26,8.77,7.8,9.26A10.28,10.28,0,0,1,168.73-.8a65.1,65.1,0,0,0-4.68,7.52ZM161,12.09V-19.66a48.45,48.45,0,0,0,10.51-1.18,1,1,0,0,1,.79.17l5.21,3.89,7.26,22.35c-1.55-3-5.45-4-4.25-8.69-1.58,3.1-6.21,3.34-8.22-1.73,3.14,2.55,6.86-.29,5.61-4.12-.69-2.15-2.44-3.43-3.8-3-2.32.75-1.84,3.88.81,4.7-3.21.7-6.88-1.73-7.72-5.86L161.55,7.81a2.18,2.18,0,0,1-.57,4.28Zm10.41-35.47A45.24,45.24,0,0,1,161-22.16v-5.6a39.61,39.61,0,0,0,12.3-2l.52,1.6-1.74,4.18A1,1,0,0,1,171.39-23.38Z"/><path class="cls-9" d="M149.46-32.09A37,37,0,0,0,161-30.26v-.87l-2-11.24-3.71,10.79L155.09-43l-5.36,10.08ZM143,1.13a4.21,4.21,0,0,0,3.23,4.58,4.18,4.18,0,0,0,5.1-3,3.94,3.94,0,0,0,0-1.67,6.33,6.33,0,0,1,.15,3.6c-.74,3-3.35,4.95-5.83,4.34a4.32,4.32,0,0,1-2.91-2.65c-1.82,7-7.89,8.17-10.5,14.49l3.64-11.2C138.07,6.11,141.63,6.46,143,1.13Zm14.95,5.59A65.1,65.1,0,0,0,153.24-.8,10.29,10.29,0,0,1,145.66.87c3.55-.49,6.91-4.37,7.81-9.26Zm1,2.52a2.15,2.15,0,0,1,1.5-1.43l-5.63-20.93C154-9,150.28-6.56,147.07-7.26c2.65-.82,3.13-4,.81-4.7-1.36-.44-3.11.84-3.8,3-1.25,3.83,2.47,6.67,5.61,4.12-2,5.08-6.64,4.83-8.22,1.73,1.2,4.66-2.7,5.71-4.25,8.69l7.26-22.35,5.21-3.89a1,1,0,0,1,.79-.17A48.43,48.43,0,0,0,161-19.66V12.09A2.17,2.17,0,0,1,158.92,9.24Zm-9-33.19-1.74-4.17.52-1.6a39.6,39.6,0,0,0,12.29,2v5.6a45.24,45.24,0,0,1-10.41-1.22A1,1,0,0,1,149.91-23.95Z"/><path class="cls-8" d="M149.73-32.91l1.58-11.3-6.86,9.11L147.78-46l-8.21,7.92-.51.7a37,37,0,0,0,10.4,5.3ZM135.9,9.63l-3.64,11.2c1.61-6.65-2.61-11.16,0-17.89a4.3,4.3,0,0,1-3.91.43C126,2.4,125-.7,126.22-3.56a6.2,6.2,0,0,1,2.23-2.83A3.85,3.85,0,0,0,127.51-5,4.17,4.17,0,0,0,129.88.41a4.2,4.2,0,0,0,5.3-1.81C133.13,3.7,136.22,5.51,135.9,9.63Zm-3.61-24.9c-2.15,4.48-1.71,9.59.86,12.08A10.33,10.33,0,0,1,128-9a64,64,0,0,0-8.21,3.34ZM114.17-3.12l18.66-25.69A47.81,47.81,0,0,0,142-23.59a1,1,0,0,1,.54.6l1.92,6.21L137.22,5.57c.51-3.32-2-6.46,1.68-9.53-3.11,1.58-7-.94-5.64-6.23,1,3.91,5.72,3.8,7,0,.7-2.15,0-4.22-1.33-4.66-2.32-.75-3.77,2.06-2.1,4.28-3-1.32-4.55-5.44-2.8-9.28L117.14-6.25a2.2,2.2,0,0,1,.38,2A2.18,2.18,0,0,1,114.17-3.12ZM143.43-25.7a44.92,44.92,0,0,1-9.13-5.13l3.29-4.53a39.63,39.63,0,0,0,11.1,5.64l-.52,1.6-3.86,2.36A1,1,0,0,1,143.43-25.7Z"/><path class="cls-9" d="M172.51-32.09a37,37,0,0,0,10.4-5.3l-.51-.7L174.19-46l3.34,10.91-6.87-9.11,1.58,11.3ZM186.79-1.4a4.2,4.2,0,0,0,5.3,1.81A4.19,4.19,0,0,0,194.46-5a3.85,3.85,0,0,0-.94-1.38,6.2,6.2,0,0,1,2.23,2.83c1.17,2.86.2,6-2.16,6.93a4.3,4.3,0,0,1-3.91-.43c2.64,6.73-1.58,11.24,0,17.89l-3.63-11.2C185.75,5.51,188.84,3.7,186.79-1.4Zm15.38-4.26A64,64,0,0,0,194-9a10.31,10.31,0,0,1-5.15,5.81c2.58-2.49,3-7.6.88-12.08Zm2.28,1.45a2.18,2.18,0,0,1,.38-2L188-19.88c1.75,3.84.21,8-2.8,9.28,1.67-2.22.21-5-2.1-4.28-1.37.44-2,2.51-1.33,4.66,1.25,3.83,5.93,3.94,7,0,1.36,5.29-2.53,7.81-5.63,6.23,3.71,3.07,1.17,6.21,1.68,9.53l-7.26-22.35L179.41-23a1,1,0,0,1,.54-.6,48.11,48.11,0,0,0,9.19-5.22L207.8-3.12A2.18,2.18,0,0,1,204.45-4.21ZM177.66-25.76l-3.86-2.36-.52-1.6a39.63,39.63,0,0,0,11.1-5.64l3.29,4.53a45.19,45.19,0,0,1-9.13,5.13A1,1,0,0,1,177.66-25.76Z"/><path class="cls-9" d="M-30.39-32.09A37.11,37.11,0,0,0-20-37.39l-.52-.7L-28.71-46l3.33,10.91-6.87-9.11,1.59,11.3ZM-16.12-1.4A4.21,4.21,0,0,0-10.81.41,4.19,4.19,0,0,0-8.44-5a4,4,0,0,0-.94-1.38A6.33,6.33,0,0,1-7.15-3.56c1.17,2.86.2,6-2.17,6.93a4.31,4.31,0,0,1-3.91-.43c2.65,6.73-1.57,11.24,0,17.89l-3.64-11.2C-17.15,5.51-14.06,3.7-16.12-1.4ZM-.73-5.66A64.61,64.61,0,0,0-8.94-9a10.35,10.35,0,0,1-5.15,5.81c2.58-2.49,3-7.6.87-12.08ZM1.55-4.21a2.15,2.15,0,0,1,.38-2L-14.93-19.88c1.75,3.84.2,8-2.81,9.28,1.67-2.22.22-5-2.1-4.28-1.36.44-2,2.51-1.32,4.66,1.24,3.83,5.93,3.94,7,0C-12.84-4.9-16.73-2.38-19.83-4c3.71,3.07,1.17,6.21,1.67,9.53l-7.26-22.35L-23.5-23a1,1,0,0,1,.55-.6,48.11,48.11,0,0,0,9.19-5.22L4.9-3.12A2.18,2.18,0,0,1,1.55-4.21ZM-25.24-25.76l-3.86-2.36-.52-1.6a39.77,39.77,0,0,0,11.1-5.64l3.29,4.53a45,45,0,0,1-9.14,5.13A1,1,0,0,1-25.24-25.76Z"/></pattern></defs><g id="Camada_1" data-name="Camada 1"><ellipse class="cls-25" cx="390.57" cy="254.72" rx="97.57" ry="246.76" transform="translate(-13.93 -1.88) rotate(-0.21)"/><ellipse class="cls-26" cx="301.47" cy="250.81" rx="97.57" ry="246.76" transform="translate(-13.92 -2.22) rotate(-0.21)"/><ellipse class="cls-27" cx="209.55" cy="251.15" rx="97.57" ry="246.76" transform="translate(-13.92 -2.56) rotate(-0.21)"/><ellipse class="cls-28" cx="110.56" cy="250.11" rx="97.57" ry="246.76" transform="translate(-13.92 -2.93) rotate(-0.21)"/></g></svg>